<svg width="528" height="102" viewBox="0 0 528 102" fill="none" xmlns="http://www.w3.org/2000/svg">
<path d="M70.427 82.2C64.9603 82.2 60.027 80.9667 55.627 78.5C51.2936 75.9667 47.827 72.5333 45.227 68.2C42.6936 63.8667 41.427 59 41.427 53.6C41.427 48.2 42.6936 43.3667 45.227 39.1C47.7603 34.7667 51.227 31.3667 55.627 28.9C60.027 26.4333 64.9603 25.2 70.427 25.2C74.4936 25.2 78.2603 25.9 81.727 27.3C85.1936 28.7 88.1603 30.6667 90.627 33.2C93.0936 35.6667 94.8603 38.6 95.927 42L82.927 47.6C81.9936 44.8667 80.3936 42.7 78.127 41.1C75.927 39.5 73.3603 38.7 70.427 38.7C67.827 38.7 65.4936 39.3333 63.427 40.6C61.427 41.8667 59.827 43.6333 58.627 45.9C57.4936 48.1667 56.927 50.7667 56.927 53.7C56.927 56.6333 57.4936 59.2333 58.627 61.5C59.827 63.7667 61.427 65.5333 63.427 66.8C65.4936 68.0667 67.827 68.7 70.427 68.7C73.427 68.7 76.027 67.9 78.227 66.3C80.427 64.7 81.9936 62.5333 82.927 59.8L95.927 65.5C94.927 68.7 93.1936 71.5667 90.727 74.1C88.2603 76.6333 85.2936 78.6333 81.827 80.1C78.3603 81.5 74.5603 82.2 70.427 82.2ZM130.86 82.2C125.46 82.2 120.526 80.9667 116.06 78.5C111.66 76.0333 108.126 72.6667 105.46 68.4C102.86 64.0667 101.56 59.1667 101.56 53.7C101.56 48.1667 102.86 43.2667 105.46 39C108.126 34.7333 111.66 31.3667 116.06 28.9C120.526 26.4333 125.46 25.2 130.86 25.2C136.26 25.2 141.16 26.4333 145.56 28.9C149.96 31.3667 153.46 34.7333 156.06 39C158.726 43.2667 160.06 48.1667 160.06 53.7C160.06 59.1667 158.726 64.0667 156.06 68.4C153.46 72.6667 149.96 76.0333 145.56 78.5C141.16 80.9667 136.26 82.2 130.86 82.2ZM130.86 68.7C133.593 68.7 135.96 68.0667 137.96 66.8C140.026 65.5333 141.626 63.7667 142.76 61.5C143.96 59.2333 144.56 56.6333 144.56 53.7C144.56 50.7667 143.96 48.2 142.76 46C141.626 43.7333 140.026 41.9667 137.96 40.7C135.96 39.3667 133.593 38.7 130.86 38.7C128.126 38.7 125.726 39.3667 123.66 40.7C121.593 41.9667 119.96 43.7333 118.76 46C117.626 48.2 117.06 50.7667 117.06 53.7C117.06 56.6333 117.626 59.2333 118.76 61.5C119.96 63.7667 121.593 65.5333 123.66 66.8C125.726 68.0667 128.126 68.7 130.86 68.7ZM167.896 81V26.4H181.896V37.2L181.096 34.8C182.363 31.5333 184.396 29.1333 187.196 27.6C190.063 26 193.396 25.2 197.196 25.2C201.33 25.2 204.93 26.0667 207.996 27.8C211.13 29.5333 213.563 31.9667 215.296 35.1C217.03 38.1667 217.896 41.7667 217.896 45.9V81H202.896V49.1C202.896 46.9667 202.463 45.1333 201.596 43.6C200.796 42.0667 199.63 40.8667 198.096 40C196.63 39.1333 194.896 38.7 192.896 38.7C190.963 38.7 189.23 39.1333 187.696 40C186.163 40.8667 184.963 42.0667 184.096 43.6C183.296 45.1333 182.896 46.9667 182.896 49.1V81H167.896ZM253.06 81.6C246.46 81.6 241.326 79.8333 237.66 76.3C234.06 72.7 232.26 67.7 232.26 61.3V39.4H223.06V26.4H223.56C226.36 26.4 228.493 25.7 229.96 24.3C231.493 22.9 232.26 20.8 232.26 18V14H247.26V26.4H260.06V39.4H247.26V60.3C247.26 62.1667 247.593 63.7333 248.26 65C248.926 66.2 249.96 67.1 251.36 67.7C252.76 68.3 254.493 68.6 256.56 68.6C257.026 68.6 257.56 68.5667 258.16 68.5C258.76 68.4333 259.393 68.3667 260.06 68.3V81C259.06 81.1333 257.926 81.2667 256.66 81.4C255.393 81.5333 254.193 81.6 253.06 81.6ZM284.75 82.2C280.816 82.2 277.416 81.5667 274.55 80.3C271.683 79.0333 269.483 77.2333 267.95 74.9C266.416 72.5 265.65 69.6667 265.65 66.4C265.65 63.3333 266.35 60.6333 267.75 58.3C269.15 55.9 271.283 53.9 274.15 52.3C277.083 50.7 280.716 49.5667 285.05 48.9L301.75 46.2V57.2L287.75 59.7C285.616 60.1 283.983 60.8 282.85 61.8C281.716 62.7333 281.15 64.1 281.15 65.9C281.15 67.5667 281.783 68.8667 283.05 69.8C284.316 70.7333 285.883 71.2 287.75 71.2C290.216 71.2 292.383 70.6667 294.25 69.6C296.116 68.5333 297.55 67.1 298.55 65.3C299.616 63.4333 300.15 61.4 300.15 59.2V45C300.15 42.9333 299.316 41.2 297.65 39.8C296.05 38.4 293.85 37.7 291.05 37.7C288.383 37.7 286.016 38.4333 283.95 39.9C281.95 41.3667 280.483 43.3 279.55 45.7L267.55 40C268.616 36.9333 270.316 34.3 272.65 32.1C274.983 29.9 277.783 28.2 281.05 27C284.316 25.8 287.883 25.2 291.75 25.2C296.35 25.2 300.416 26.0333 303.95 27.7C307.483 29.3667 310.216 31.7 312.15 34.7C314.15 37.6333 315.15 41.0667 315.15 45V81H301.15V72.2L304.55 71.6C302.95 74 301.183 76 299.25 77.6C297.316 79.1333 295.15 80.2667 292.75 81C290.35 81.8 287.683 82.2 284.75 82.2ZM351.95 82.2C346.484 82.2 341.55 80.9667 337.15 78.5C332.817 75.9667 329.35 72.5333 326.75 68.2C324.217 63.8667 322.95 59 322.95 53.6C322.95 48.2 324.217 43.3667 326.75 39.1C329.284 34.7667 332.75 31.3667 337.15 28.9C341.55 26.4333 346.484 25.2 351.95 25.2C356.017 25.2 359.784 25.9 363.25 27.3C366.717 28.7 369.684 30.6667 372.15 33.2C374.617 35.6667 376.384 38.6 377.45 42L364.45 47.6C363.517 44.8667 361.917 42.7 359.65 41.1C357.45 39.5 354.884 38.7 351.95 38.7C349.35 38.7 347.017 39.3333 344.95 40.6C342.95 41.8667 341.35 43.6333 340.15 45.9C339.017 48.1667 338.45 50.7667 338.45 53.7C338.45 56.6333 339.017 59.2333 340.15 61.5C341.35 63.7667 342.95 65.5333 344.95 66.8C347.017 68.0667 349.35 68.7 351.95 68.7C354.95 68.7 357.55 67.9 359.75 66.3C361.95 64.7 363.517 62.5333 364.45 59.8L377.45 65.5C376.45 68.7 374.717 71.5667 372.25 74.1C369.784 76.6333 366.817 78.6333 363.35 80.1C359.884 81.5 356.084 82.2 351.95 82.2ZM411.583 81.6C404.983 81.6 399.85 79.8333 396.183 76.3C392.583 72.7 390.783 67.7 390.783 61.3V39.4H381.583V26.4H382.083C384.883 26.4 387.017 25.7 388.483 24.3C390.017 22.9 390.783 20.8 390.783 18V14H405.783V26.4H418.583V39.4H405.783V60.3C405.783 62.1667 406.117 63.7333 406.783 65C407.45 66.2 408.483 67.1 409.883 67.7C411.283 68.3 413.017 68.6 415.083 68.6C415.55 68.6 416.083 68.5667 416.683 68.5C417.283 68.4333 417.917 68.3667 418.583 68.3V81C417.583 81.1333 416.45 81.2667 415.183 81.4C413.917 81.5333 412.717 81.6 411.583 81.6Z" fill="#1B1B1B"/>
<path fill-rule="evenodd" clip-rule="evenodd" d="M23.8878 41.3527C21.5872 40.1278 19.4264 38.5791 17.3427 37.0634C16.8951 36.7357 16.7675 36.1218 17.0866 35.7212C17.3771 35.2934 17.9838 35.2195 18.4026 35.5204C20.4208 36.991 22.5107 38.4997 24.7078 39.6624C25.1777 39.9084 25.3849 40.4949 25.1624 40.9651C24.9402 41.435 24.358 41.5984 23.8878 41.3527Z" fill="black"/>
<path fill-rule="evenodd" clip-rule="evenodd" d="M23.0014 53.5121C17.361 53.6235 11.6901 53.0166 6.03554 53.2587C5.51991 53.2929 5.04522 52.8787 4.99642 52.3534C4.94787 51.8279 5.32199 51.3683 5.86643 51.3609C11.5288 51.1104 17.2074 51.709 22.8557 51.5892C23.394 51.5883 23.8584 52.0133 23.9004 52.546C23.9137 53.0515 23.5397 53.5112 23.0014 53.5121Z" fill="black"/>
<path fill-rule="evenodd" clip-rule="evenodd" d="M18.2809 69.7356C19.8972 68.1718 21.5134 66.608 23.1299 65.044C23.4804 64.6674 24.0968 64.6984 24.4831 65.0921C24.8692 65.4859 24.8588 66.0744 24.5081 66.4513C22.8893 68.0178 21.2708 69.5841 19.6522 71.1503C19.273 71.5001 18.6584 71.4672 18.2741 71.0714C17.9187 70.7024 17.9019 70.0851 18.2809 69.7356Z" fill="black"/>
<g filter="url(#filter0_d_36_508)">
<path d="M464.796 85.4728C465.806 87.7051 468.366 87.6892 469.419 86.2585L476.426 45.0326C482.396 42.598 486.452 45.0407 496.103 48.377C505.353 51.5748 517.112 54.8398 512.385 43.901C509.968 38.3074 483.275 34.4692 473.913 44.6054C468.986 32.7305 446.107 27.1084 439.587 31.5279C428.206 39.2425 443.794 41.3491 450.776 40.6731C464.849 39.3105 471.803 44.2469 471.803 44.2469L464.796 85.4728Z" fill="#76EC80"/>
<path d="M473.363 86.9288L473.204 87.8653L472.64 88.6303C469.763 92.5381 463.413 92.122 461.152 87.1211L460.648 86.0075L460.853 84.8025L467.368 46.468C466.819 46.245 466.164 46.0073 465.403 45.7759C462.389 44.8593 457.659 44.0254 451.162 44.6545C449.124 44.8518 446.577 44.8398 444.09 44.595C441.648 44.3546 438.949 43.8604 436.746 42.9347C434.932 42.1723 431.458 40.233 431.553 36.2122C431.597 34.3734 432.441 32.8267 433.417 31.6324C434.401 30.4281 435.743 29.3012 437.343 28.2169C440.028 26.3967 443.723 25.9398 447.124 26.0386C450.699 26.1423 454.705 26.884 458.59 28.1542C464.513 30.0903 470.975 33.5422 474.981 38.6386C477.311 37.2114 479.921 36.2223 482.55 35.5553C486.876 34.4584 491.575 34.149 495.945 34.3592C500.312 34.5691 504.534 35.3066 507.926 36.428C509.617 36.9868 511.22 37.6799 512.563 38.5305C513.826 39.3305 515.291 40.5407 516.057 42.3143C517.321 45.2385 518.137 48.564 516.725 51.432C515.148 54.6335 511.861 55.3414 509.658 55.4365C507.318 55.5376 504.678 55.0566 502.24 54.4446C499.74 53.8169 497.141 52.9681 494.796 52.1575C492.9 51.5019 491.307 50.9174 489.915 50.4068C487.488 49.516 485.674 48.8506 483.937 48.4269C482.418 48.0565 481.196 47.9438 479.954 48.1471L473.363 86.9288Z" stroke="#84ED88" stroke-width="8"/>
<path d="M473.363 86.9288L473.204 87.8653L472.64 88.6303C469.763 92.5381 463.413 92.122 461.152 87.1211L460.648 86.0075L460.853 84.8025L467.368 46.468C466.819 46.245 466.164 46.0073 465.403 45.7759C462.389 44.8593 457.659 44.0254 451.162 44.6545C449.124 44.8518 446.577 44.8398 444.09 44.595C441.648 44.3546 438.949 43.8604 436.746 42.9347C434.932 42.1723 431.458 40.233 431.553 36.2122C431.597 34.3734 432.441 32.8267 433.417 31.6324C434.401 30.4281 435.743 29.3012 437.343 28.2169C440.028 26.3967 443.723 25.9398 447.124 26.0386C450.699 26.1423 454.705 26.884 458.59 28.1542C464.513 30.0903 470.975 33.5422 474.981 38.6386C477.311 37.2114 479.921 36.2223 482.55 35.5553C486.876 34.4584 491.575 34.149 495.945 34.3592C500.312 34.5691 504.534 35.3066 507.926 36.428C509.617 36.9868 511.22 37.6799 512.563 38.5305C513.826 39.3305 515.291 40.5407 516.057 42.3143C517.321 45.2385 518.137 48.564 516.725 51.432C515.148 54.6335 511.861 55.3414 509.658 55.4365C507.318 55.5376 504.678 55.0566 502.24 54.4446C499.74 53.8169 497.141 52.9681 494.796 52.1575C492.9 51.5019 491.307 50.9174 489.915 50.4068C487.488 49.516 485.674 48.8506 483.937 48.4269C482.418 48.0565 481.196 47.9438 479.954 48.1471L473.363 86.9288Z" stroke="white" stroke-width="8"/>
</g>
<defs>
<filter id="filter0_d_36_508" x="427.551" y="22.0259" width="99.9175" height="79.2306" filterUnits="userSpaceOnUse" color-interpolation-filters="sRGB">
<feFlood flood-opacity="0" result="BackgroundImageFix"/>
<feColorMatrix in="SourceAlpha" type="matrix" values="0 0 0 0 0 0 0 0 0 0 0 0 0 0 0 0 0 0 127 0" result="hardAlpha"/>
<feOffset dx="3" dy="3"/>
<feGaussianBlur stdDeviation="1.5"/>
<feComposite in2="hardAlpha" operator="out"/>
<feColorMatrix type="matrix" values="0 0 0 0 0 0 0 0 0 0 0 0 0 0 0 0 0 0 0.3 0"/>
<feBlend mode="normal" in2="BackgroundImageFix" result="effect1_dropShadow_36_508"/>
<feBlend mode="normal" in="SourceGraphic" in2="effect1_dropShadow_36_508" result="shape"/>
</filter>
</defs>
</svg>
