<svg width="1080" height="382" viewBox="0 0 1080 382" fill="none" xmlns="http://www.w3.org/2000/svg">
<path d="M489.421 153.1C479.271 153.1 470.463 150.883 462.996 146.45C455.53 141.9 449.755 135.833 445.671 128.25C441.588 120.667 439.546 112.267 439.546 103.05C439.546 93.4833 441.646 84.9667 445.846 77.5C450.163 70.0333 455.938 64.1417 463.171 59.825C470.405 55.5083 478.571 53.35 487.671 53.35C495.255 53.35 501.963 54.575 507.796 57.025C513.63 59.3583 518.53 62.6833 522.496 67C526.58 71.3167 529.671 76.3333 531.771 82.05C533.871 87.65 534.921 93.775 534.921 100.425C534.921 102.292 534.805 104.158 534.571 106.025C534.455 107.775 534.163 109.292 533.696 110.575H462.121V91.325H518.821L506.396 100.425C507.563 95.4083 507.505 90.975 506.221 87.125C504.938 83.1583 502.663 80.0667 499.396 77.85C496.246 75.5167 492.338 74.35 487.671 74.35C483.121 74.35 479.213 75.4583 475.946 77.675C472.68 79.8917 470.23 83.1583 468.596 87.475C466.963 91.7917 466.321 97.0417 466.671 103.225C466.205 108.592 466.846 113.317 468.596 117.4C470.346 121.483 473.03 124.692 476.646 127.025C480.263 129.242 484.638 130.35 489.771 130.35C494.438 130.35 498.405 129.417 501.671 127.55C505.055 125.683 507.68 123.117 509.546 119.85L530.546 129.825C528.68 134.492 525.705 138.575 521.621 142.075C517.655 145.575 512.93 148.317 507.446 150.3C501.963 152.167 495.955 153.1 489.421 153.1ZM549.379 151V55.45H573.879V78.725L571.254 74.875C572.654 67.525 576.037 62.1 581.404 58.6C586.771 55.1 593.187 53.35 600.654 53.35C608.587 53.35 615.529 55.3917 621.479 59.475C627.546 63.4417 631.337 68.8083 632.854 75.575L625.329 76.275C628.479 68.4583 632.971 62.6833 638.804 58.95C644.637 55.2167 651.462 53.35 659.279 53.35C666.162 53.35 672.229 54.8667 677.479 57.9C682.846 60.9333 687.046 65.1917 690.079 70.675C693.112 76.0417 694.629 82.3417 694.629 89.575V151H668.379V95.175C668.379 91.4417 667.679 88.2333 666.279 85.55C664.996 82.8667 663.129 80.7667 660.679 79.25C658.229 77.7333 655.254 76.975 651.754 76.975C648.371 76.975 645.396 77.7333 642.829 79.25C640.379 80.7667 638.454 82.8667 637.054 85.55C635.771 88.2333 635.129 91.4417 635.129 95.175V151H608.879V95.175C608.879 91.4417 608.179 88.2333 606.779 85.55C605.496 82.8667 603.629 80.7667 601.179 79.25C598.729 77.7333 595.754 76.975 592.254 76.975C588.871 76.975 585.896 77.7333 583.329 79.25C580.879 80.7667 578.954 82.8667 577.554 85.55C576.271 88.2333 575.629 91.4417 575.629 95.175V151H549.379ZM710.903 151V55.45H737.153V151H710.903ZM710.903 46.875V20.625H737.153V46.875H710.903ZM755.362 151V18.525H781.612V151H755.362ZM799.821 151V55.45H826.071V151H799.821ZM799.821 46.875V20.625H826.071V46.875H799.821ZM873.855 153.1C866.972 153.1 861.022 151.992 856.005 149.775C850.989 147.558 847.139 144.408 844.455 140.325C841.772 136.125 840.43 131.167 840.43 125.45C840.43 120.083 841.655 115.358 844.105 111.275C846.555 107.075 850.289 103.575 855.305 100.775C860.439 97.975 866.797 95.9917 874.38 94.825L903.605 90.1V109.35L879.105 113.725C875.372 114.425 872.514 115.65 870.53 117.4C868.547 119.033 867.555 121.425 867.555 124.575C867.555 127.492 868.664 129.767 870.88 131.4C873.097 133.033 875.839 133.85 879.105 133.85C883.422 133.85 887.214 132.917 890.48 131.05C893.747 129.183 896.255 126.675 898.005 123.525C899.872 120.258 900.805 116.7 900.805 112.85V88C900.805 84.3833 899.347 81.35 896.43 78.9C893.63 76.45 889.78 75.225 884.88 75.225C880.214 75.225 876.072 76.5083 872.455 79.075C868.955 81.6417 866.389 85.025 864.755 89.225L843.755 79.25C845.622 73.8833 848.597 69.275 852.68 65.425C856.764 61.575 861.664 58.6 867.38 56.5C873.097 54.4 879.339 53.35 886.105 53.35C894.155 53.35 901.272 54.8083 907.455 57.725C913.639 60.6417 918.422 64.725 921.805 69.975C925.305 75.1083 927.055 81.1167 927.055 88V151H902.555V135.6L908.505 134.55C905.705 138.75 902.614 142.25 899.23 145.05C895.847 147.733 892.055 149.717 887.855 151C883.655 152.4 878.989 153.1 873.855 153.1ZM114.915 292L82.0153 196.45H109.14L132.24 265.4L122.79 265.225L148.515 196.45H171.265L196.815 265.225L187.365 265.4L210.465 196.45H237.765L204.69 292H181.94L155.34 218.15H164.44L137.665 292H114.915ZM248.334 292V196.45H274.584V292H248.334ZM248.334 187.875V161.625H274.584V187.875H248.334ZM292.793 292V159.525H319.043V292H292.793ZM337.252 292V159.525H363.502V292H337.252ZM381.711 292V196.45H407.961V292H381.711ZM381.711 187.875V161.625H407.961V187.875H381.711ZM455.745 294.1C448.862 294.1 442.912 292.992 437.895 290.775C432.879 288.558 429.029 285.408 426.345 281.325C423.662 277.125 422.32 272.167 422.32 266.45C422.32 261.083 423.545 256.358 425.995 252.275C428.445 248.075 432.179 244.575 437.195 241.775C442.329 238.975 448.687 236.992 456.27 235.825L485.495 231.1V250.35L460.995 254.725C457.262 255.425 454.404 256.65 452.42 258.4C450.437 260.033 449.445 262.425 449.445 265.575C449.445 268.492 450.554 270.767 452.77 272.4C454.987 274.033 457.729 274.85 460.995 274.85C465.312 274.85 469.104 273.917 472.37 272.05C475.637 270.183 478.145 267.675 479.895 264.525C481.762 261.258 482.695 257.7 482.695 253.85V229C482.695 225.383 481.237 222.35 478.32 219.9C475.52 217.45 471.67 216.225 466.77 216.225C462.104 216.225 457.962 217.508 454.345 220.075C450.845 222.642 448.279 226.025 446.645 230.225L425.645 220.25C427.512 214.883 430.487 210.275 434.57 206.425C438.654 202.575 443.554 199.6 449.27 197.5C454.987 195.4 461.229 194.35 467.995 194.35C476.045 194.35 483.162 195.808 489.345 198.725C495.529 201.642 500.312 205.725 503.695 210.975C507.195 216.108 508.945 222.117 508.945 229V292H484.445V276.6L490.395 275.55C487.595 279.75 484.504 283.25 481.12 286.05C477.737 288.733 473.945 290.717 469.745 292C465.545 293.4 460.879 294.1 455.745 294.1ZM527.197 292V196.45H551.697V219.725L549.072 215.875C550.472 208.525 553.855 203.1 559.222 199.6C564.588 196.1 571.005 194.35 578.472 194.35C586.405 194.35 593.347 196.392 599.297 200.475C605.363 204.442 609.155 209.808 610.672 216.575L603.147 217.275C606.297 209.458 610.788 203.683 616.622 199.95C622.455 196.217 629.28 194.35 637.097 194.35C643.98 194.35 650.047 195.867 655.297 198.9C660.663 201.933 664.863 206.192 667.897 211.675C670.93 217.042 672.447 223.342 672.447 230.575V292H646.197V236.175C646.197 232.442 645.497 229.233 644.097 226.55C642.813 223.867 640.947 221.767 638.497 220.25C636.047 218.733 633.072 217.975 629.572 217.975C626.188 217.975 623.213 218.733 620.647 220.25C618.197 221.767 616.272 223.867 614.872 226.55C613.588 229.233 612.947 232.442 612.947 236.175V292H586.697V236.175C586.697 232.442 585.997 229.233 584.597 226.55C583.313 223.867 581.447 221.767 578.997 220.25C576.547 218.733 573.572 217.975 570.072 217.975C566.688 217.975 563.713 218.733 561.147 220.25C558.697 221.767 556.772 223.867 555.372 226.55C554.088 229.233 553.447 232.442 553.447 236.175V292H527.197ZM726.171 294.1C715.671 294.1 706.513 291.65 698.696 286.75C690.996 281.733 685.746 275.025 682.946 266.625L702.196 257.525C704.646 262.658 707.971 266.683 712.171 269.6C716.371 272.517 721.038 273.975 726.171 273.975C729.905 273.975 732.763 273.217 734.746 271.7C736.73 270.183 737.721 268.083 737.721 265.4C737.721 264 737.371 262.833 736.671 261.9C735.971 260.85 734.921 259.917 733.521 259.1C732.121 258.283 730.371 257.583 728.271 257L711.996 252.45C704.18 250.233 698.171 246.675 693.971 241.775C689.771 236.758 687.671 230.867 687.671 224.1C687.671 218.15 689.188 212.958 692.221 208.525C695.255 204.092 699.513 200.65 704.996 198.2C710.48 195.633 716.78 194.35 723.896 194.35C733.23 194.35 741.396 196.567 748.396 201C755.513 205.317 760.53 211.442 763.446 219.375L744.021 228.475C742.621 224.508 740.055 221.358 736.321 219.025C732.705 216.575 728.563 215.35 723.896 215.35C720.513 215.35 717.83 216.05 715.846 217.45C713.98 218.85 713.046 220.775 713.046 223.225C713.046 224.508 713.396 225.675 714.096 226.725C714.796 227.775 715.905 228.708 717.421 229.525C719.055 230.342 721.038 231.1 723.371 231.8L738.596 236.35C746.53 238.683 752.596 242.242 756.796 247.025C760.996 251.692 763.096 257.467 763.096 264.35C763.096 270.3 761.521 275.492 758.371 279.925C755.338 284.358 751.08 287.858 745.596 290.425C740.113 292.875 733.638 294.1 726.171 294.1ZM825.21 294.1C815.76 294.1 807.126 291.942 799.31 287.625C791.61 283.308 785.426 277.417 780.76 269.95C776.21 262.367 773.935 253.792 773.935 244.225C773.935 234.542 776.21 225.967 780.76 218.5C785.426 211.033 791.61 205.142 799.31 200.825C807.126 196.508 815.76 194.35 825.21 194.35C834.66 194.35 843.235 196.508 850.935 200.825C858.635 205.142 864.76 211.033 869.31 218.5C873.976 225.967 876.31 234.542 876.31 244.225C876.31 253.792 873.976 262.367 869.31 269.95C864.76 277.417 858.635 283.308 850.935 287.625C843.235 291.942 834.66 294.1 825.21 294.1ZM825.21 270.475C829.993 270.475 834.135 269.367 837.635 267.15C841.251 264.933 844.051 261.842 846.035 257.875C848.135 253.908 849.185 249.358 849.185 244.225C849.185 239.092 848.135 234.6 846.035 230.75C844.051 226.783 841.251 223.692 837.635 221.475C834.135 219.142 829.993 217.975 825.21 217.975C820.426 217.975 816.226 219.142 812.61 221.475C808.993 223.692 806.135 226.783 804.035 230.75C802.051 234.6 801.06 239.092 801.06 244.225C801.06 249.358 802.051 253.908 804.035 257.875C806.135 261.842 808.993 264.933 812.61 267.15C816.226 269.367 820.426 270.475 825.21 270.475ZM890.774 292V196.45H915.274V215.35L913.874 211.15C916.091 205.433 919.649 201.233 924.549 198.55C929.566 195.75 935.399 194.35 942.049 194.35C949.282 194.35 955.582 195.867 960.949 198.9C966.432 201.933 970.691 206.192 973.724 211.675C976.757 217.042 978.274 223.342 978.274 230.575V292H952.024V236.175C952.024 232.442 951.266 229.233 949.749 226.55C948.349 223.867 946.307 221.767 943.624 220.25C941.057 218.733 938.024 217.975 934.524 217.975C931.141 217.975 928.107 218.733 925.424 220.25C922.741 221.767 920.641 223.867 919.124 226.55C917.724 229.233 917.024 232.442 917.024 236.175V292H890.774Z" fill="#1B1B1B"/>
<g filter="url(#filter0_d_26_484)">
<path d="M864.391 307.054C865.04 303.123 864.197 298.877 861.982 295.493C859.707 292.018 855.923 289.399 850.96 289.206C847.021 289.053 843.061 289.871 840.226 290.906C834.169 293.118 828.253 296.493 824.094 301.666C819.746 307.074 817.766 313.908 818.895 321.825C818.962 322.293 819.037 322.758 819.122 323.221C809.751 325.613 800.647 326.211 792.069 326.354C774.726 326.642 763.656 317.45 759.18 307.608C757.525 303.972 753.224 302.335 749.564 304.057L751.332 307.816L749.564 304.057C745.942 305.761 744.414 310.067 746.052 313.667C752.904 328.729 769.2 341.265 792.293 340.881C801.919 340.721 813.06 340.018 824.826 336.724C824.977 336.934 825.131 337.143 825.287 337.35C834.864 350.052 851.334 353.53 864.622 353.188C868.884 353.078 873.503 352.306 880.151 350.59C882.476 349.99 885.23 349.225 888.189 348.325C893.198 355.407 901.55 359.605 912.901 361.269C925.935 363.178 944.051 361.967 968.761 357.275C972.717 356.524 975.237 352.704 974.529 348.82C973.818 344.914 970.078 342.242 966.097 342.998C941.882 347.595 925.643 348.451 914.994 346.891C909.418 346.074 905.727 344.659 903.241 343.003C905.163 342.204 907.044 341.362 908.824 340.483C913.152 338.346 917.868 335.528 920.75 331.908C926.457 324.739 925.928 316.644 922.078 311.048C919.109 306.733 914.669 305.387 911.047 305.238C907.6 305.097 904.254 305.967 901.798 306.792C900.82 307.12 899.875 307.455 898.969 307.812C887.937 312.156 882.738 323.939 883.409 334.603C880.893 335.359 878.557 336.005 876.577 336.516C870.427 338.103 866.99 338.593 864.267 338.663C854.429 338.916 845.187 336.587 839.339 331.328C845.121 328.604 850.941 325.118 856.721 320.668C860.884 317.463 863.504 312.415 864.391 307.054ZM847.956 309.131C842.961 312.976 837.97 315.951 833.039 318.259C832.868 314.994 833.809 312.671 835.314 310.799C837.226 308.421 840.485 306.263 845.138 304.564C846.404 304.102 848.335 303.704 850.067 303.717C850.138 303.858 850.235 304.163 850.149 304.682C849.744 307.131 848.666 308.584 847.956 309.131ZM849.991 303.603C849.991 303.603 849.993 303.604 849.996 303.608C849.992 303.605 849.991 303.603 849.991 303.603ZM902.474 327.44C901.114 328.112 899.649 328.773 898.115 329.418C898.989 325.604 901.354 322.47 904.219 321.342C904.819 321.105 905.517 320.856 906.356 320.574L905.049 316.68L906.356 320.574C908.165 319.966 909.562 319.722 910.437 319.756C910.528 319.986 910.574 320.23 910.566 320.488C910.555 320.886 910.407 321.673 909.485 322.831C908.738 323.77 906.551 325.427 902.474 327.44Z" fill="#66C0F2" stroke="white" stroke-width="8.30774" stroke-linecap="round"/>
</g>
<path d="M134.921 361.48C132.575 361.48 130.481 360.987 128.641 360C126.801 359.013 125.348 357.667 124.281 355.96C123.241 354.227 122.721 352.267 122.721 350.08V331.2H128.921V349.68C128.921 350.853 129.175 351.92 129.681 352.88C130.215 353.813 130.935 354.547 131.841 355.08C132.748 355.613 133.775 355.88 134.921 355.88C136.095 355.88 137.121 355.613 138.001 355.08C138.908 354.547 139.615 353.813 140.121 352.88C140.655 351.92 140.921 350.853 140.921 349.68V331.2H147.121V350.08C147.121 352.267 146.588 354.227 145.521 355.96C144.481 357.667 143.041 359.013 141.201 360C139.361 360.987 137.268 361.48 134.921 361.48ZM150.327 361L160.087 346.08L150.327 331.2H157.447L165.287 343.12H161.807L169.607 331.2H176.727L167.007 346.08L176.727 361H169.607L161.807 349.04L165.287 349.08L157.447 361H150.327ZM187.98 361V331.2H197.7C200.927 331.2 203.727 331.84 206.1 333.12C208.473 334.4 210.313 336.16 211.62 338.4C212.927 340.64 213.58 343.2 213.58 346.08C213.58 348.96 212.927 351.533 211.62 353.8C210.313 356.04 208.473 357.8 206.1 359.08C203.727 360.36 200.927 361 197.7 361H187.98ZM194.18 355.6H197.86C199.807 355.6 201.487 355.213 202.9 354.44C204.313 353.64 205.407 352.533 206.18 351.12C206.98 349.68 207.38 348 207.38 346.08C207.38 344.133 206.98 342.453 206.18 341.04C205.407 339.627 204.313 338.533 202.9 337.76C201.487 336.987 199.807 336.6 197.86 336.6H194.18V355.6ZM218.05 361V331.2H238.09V336.6H224.25V343.36H237.29V348.76H224.25V355.6H238.09V361H218.05ZM252.945 361.48C251.078 361.48 249.318 361.147 247.665 360.48C246.038 359.787 244.625 358.813 243.425 357.56C242.252 356.307 241.372 354.827 240.785 353.12L245.865 350.84C246.612 352.467 247.638 353.747 248.945 354.68C250.278 355.613 251.745 356.08 253.345 356.08C254.198 356.08 254.932 355.947 255.545 355.68C256.158 355.413 256.638 355.053 256.985 354.6C257.332 354.12 257.505 353.56 257.505 352.92C257.505 352.227 257.292 351.64 256.865 351.16C256.438 350.653 255.772 350.253 254.865 349.96L249.025 348.04C246.652 347.267 244.865 346.173 243.665 344.76C242.465 343.32 241.865 341.6 241.865 339.6C241.865 337.84 242.292 336.293 243.145 334.96C244.025 333.627 245.238 332.587 246.785 331.84C248.358 331.093 250.158 330.72 252.185 330.72C253.972 330.72 255.625 331.027 257.145 331.64C258.665 332.253 259.972 333.12 261.065 334.24C262.185 335.36 263.025 336.707 263.585 338.28L258.545 340.56C257.985 339.173 257.145 338.093 256.025 337.32C254.905 336.52 253.625 336.12 252.185 336.12C251.358 336.12 250.625 336.253 249.985 336.52C249.345 336.787 248.852 337.173 248.505 337.68C248.158 338.16 247.985 338.72 247.985 339.36C247.985 340.053 248.212 340.667 248.665 341.2C249.118 341.707 249.798 342.107 250.705 342.4L256.425 344.24C258.825 345.013 260.612 346.093 261.785 347.48C262.985 348.867 263.585 350.56 263.585 352.56C263.585 354.293 263.132 355.84 262.225 357.2C261.318 358.533 260.065 359.587 258.465 360.36C256.892 361.107 255.052 361.48 252.945 361.48ZM268.503 361V331.2H274.703V361H268.503ZM294.808 361.48C292.674 361.48 290.688 361.093 288.848 360.32C287.008 359.547 285.394 358.467 284.008 357.08C282.621 355.693 281.541 354.067 280.768 352.2C279.994 350.333 279.608 348.293 279.608 346.08C279.608 343.867 279.981 341.827 280.728 339.96C281.474 338.067 282.528 336.44 283.888 335.08C285.248 333.693 286.834 332.627 288.648 331.88C290.488 331.107 292.488 330.72 294.648 330.72C296.808 330.72 298.741 331.08 300.448 331.8C302.181 332.52 303.648 333.48 304.848 334.68C306.048 335.88 306.901 337.213 307.408 338.68L301.928 341.32C301.421 339.88 300.528 338.693 299.248 337.76C297.994 336.8 296.461 336.32 294.648 336.32C292.888 336.32 291.341 336.733 290.008 337.56C288.674 338.387 287.634 339.533 286.888 341C286.168 342.44 285.808 344.133 285.808 346.08C285.808 348.027 286.194 349.733 286.968 351.2C287.741 352.667 288.794 353.813 290.128 354.64C291.488 355.467 293.048 355.88 294.808 355.88C296.168 355.88 297.434 355.627 298.608 355.12C299.808 354.587 300.768 353.827 301.488 352.84C302.234 351.853 302.608 350.667 302.608 349.28V346.8L305.448 349.2H294.648V344H308.808V347.16C308.808 349.587 308.408 351.707 307.608 353.52C306.808 355.307 305.728 356.8 304.368 358C303.034 359.173 301.528 360.053 299.848 360.64C298.194 361.2 296.514 361.48 294.808 361.48ZM313.136 361V331.2H317.896L333.896 352.28L331.336 352.88V331.2H337.536V361H332.736L317.016 339.76L319.336 339.16V361H313.136ZM343.324 361V331.2H363.364V336.6H349.524V343.36H362.564V348.76H349.524V355.6H363.364V361H343.324ZM367.378 361V331.2H378.778C380.832 331.2 382.645 331.56 384.218 332.28C385.818 333 387.072 334.067 387.978 335.48C388.885 336.893 389.338 338.64 389.338 340.72C389.338 342.747 388.872 344.48 387.938 345.92C387.005 347.333 385.752 348.4 384.178 349.12L390.978 361H384.018L376.658 347.84L380.658 350.2H373.578V361H367.378ZM373.578 344.8H378.818C379.698 344.8 380.458 344.627 381.098 344.28C381.738 343.933 382.232 343.453 382.578 342.84C382.952 342.227 383.138 341.52 383.138 340.72C383.138 339.893 382.952 339.173 382.578 338.56C382.232 337.947 381.738 337.467 381.098 337.12C380.458 336.773 379.698 336.6 378.818 336.6H373.578V344.8ZM412.485 361.48C410.565 361.48 408.885 361.147 407.445 360.48C406.032 359.787 404.925 358.813 404.125 357.56C403.325 356.307 402.925 354.853 402.925 353.2C402.925 351.813 403.165 350.613 403.645 349.6C404.152 348.587 404.765 347.733 405.485 347.04C406.205 346.347 406.912 345.787 407.605 345.36C408.325 344.907 408.912 344.56 409.365 344.32L412.165 342.88C413.045 342.427 413.832 341.987 414.525 341.56C415.219 341.133 415.765 340.667 416.165 340.16C416.592 339.627 416.805 339.013 416.805 338.32C416.805 337.52 416.539 336.84 416.005 336.28C415.499 335.72 414.845 335.44 414.045 335.44C413.272 335.44 412.605 335.72 412.045 336.28C411.512 336.813 411.245 337.507 411.245 338.36C411.245 339 411.392 339.627 411.685 340.24C411.979 340.853 412.312 341.413 412.685 341.92C413.085 342.427 413.445 342.867 413.765 343.24L429.365 361H422.405L409.565 346.6C408.952 345.907 408.339 345.173 407.725 344.4C407.139 343.627 406.645 342.773 406.245 341.84C405.872 340.88 405.685 339.813 405.685 338.64C405.685 337.013 406.072 335.613 406.845 334.44C407.619 333.24 408.632 332.32 409.885 331.68C411.139 331.04 412.499 330.72 413.965 330.72C415.512 330.72 416.899 331.053 418.125 331.72C419.352 332.387 420.325 333.293 421.045 334.44C421.765 335.587 422.125 336.893 422.125 338.36C422.125 339.827 421.779 341.08 421.085 342.12C420.419 343.133 419.605 343.987 418.645 344.68C417.685 345.373 416.779 345.96 415.925 346.44L413.005 348.12C412.472 348.413 411.899 348.787 411.285 349.24C410.672 349.693 410.152 350.24 409.725 350.88C409.325 351.493 409.125 352.24 409.125 353.12C409.125 354.16 409.445 354.987 410.085 355.6C410.725 356.187 411.605 356.48 412.725 356.48C413.419 356.48 414.032 356.373 414.565 356.16C415.099 355.92 415.565 355.64 415.965 355.32C416.365 354.973 416.699 354.613 416.965 354.24C417.259 353.867 417.512 353.533 417.725 353.24L422.405 346.48H428.485L423.085 354.96C422.685 355.6 422.192 356.307 421.605 357.08C421.045 357.827 420.352 358.533 419.525 359.2C418.699 359.867 417.712 360.413 416.565 360.84C415.419 361.267 414.059 361.48 412.485 361.48ZM448.572 361L440.772 331.2H447.492L453.372 356.16H451.572L457.772 331.2H464.172L470.372 356.16H468.572L474.452 331.2H481.172L473.372 361H466.172L459.932 337H462.012L455.772 361H448.572ZM484.761 361V331.2H504.801V336.6H490.961V343.36H504.001V348.76H490.961V355.6H504.801V361H484.761ZM508.816 361V331.2H521.416C523.469 331.2 525.229 331.547 526.696 332.24C528.162 332.933 529.282 333.933 530.056 335.24C530.829 336.52 531.216 338.08 531.216 339.92C531.216 341.227 530.856 342.48 530.136 343.68C529.416 344.853 528.229 345.84 526.576 346.64V343.6C528.149 344.213 529.362 344.947 530.216 345.8C531.069 346.653 531.656 347.587 531.976 348.6C532.296 349.587 532.456 350.627 532.456 351.72C532.456 354.653 531.482 356.933 529.536 358.56C527.589 360.187 524.882 361 521.416 361H508.816ZM515.016 355.6H522.136C523.389 355.6 524.389 355.24 525.136 354.52C525.882 353.8 526.256 352.867 526.256 351.72C526.256 350.547 525.882 349.6 525.136 348.88C524.389 348.16 523.389 347.8 522.136 347.8H515.016V355.6ZM515.016 342.4H521.856C522.816 342.4 523.576 342.133 524.136 341.6C524.722 341.04 525.016 340.307 525.016 339.4C525.016 338.493 524.722 337.773 524.136 337.24C523.576 336.68 522.816 336.4 521.856 336.4H515.016V342.4ZM544.62 361V331.2H554.34C557.567 331.2 560.367 331.84 562.74 333.12C565.114 334.4 566.954 336.16 568.26 338.4C569.567 340.64 570.22 343.2 570.22 346.08C570.22 348.96 569.567 351.533 568.26 353.8C566.954 356.04 565.114 357.8 562.74 359.08C560.367 360.36 557.567 361 554.34 361H544.62ZM550.82 355.6H554.5C556.447 355.6 558.127 355.213 559.54 354.44C560.954 353.64 562.047 352.533 562.82 351.12C563.62 349.68 564.02 348 564.02 346.08C564.02 344.133 563.62 342.453 562.82 341.04C562.047 339.627 560.954 338.533 559.54 337.76C558.127 336.987 556.447 336.6 554.5 336.6H550.82V355.6ZM574.691 361V331.2H594.731V336.6H580.891V343.36H593.931V348.76H580.891V355.6H594.731V361H574.691ZM606.745 361L596.545 331.2H603.345L611.025 355.12H609.665L617.345 331.2H624.145L613.945 361H606.745ZM627.722 361V331.2H647.762V336.6H633.922V343.36H646.962V348.76H633.922V355.6H647.762V361H627.722ZM651.777 361V331.2H657.977V355.6H670.577V361H651.777ZM688.29 361.48C686.05 361.48 683.97 361.093 682.05 360.32C680.13 359.547 678.45 358.467 677.01 357.08C675.597 355.667 674.49 354.027 673.69 352.16C672.89 350.293 672.49 348.267 672.49 346.08C672.49 343.893 672.877 341.867 673.65 340C674.45 338.133 675.557 336.507 676.97 335.12C678.41 333.733 680.09 332.653 682.01 331.88C683.93 331.107 686.024 330.72 688.29 330.72C690.557 330.72 692.65 331.107 694.57 331.88C696.49 332.653 698.157 333.733 699.57 335.12C701.01 336.507 702.117 338.133 702.89 340C703.69 341.867 704.09 343.893 704.09 346.08C704.09 348.267 703.69 350.293 702.89 352.16C702.09 354.027 700.97 355.667 699.53 357.08C698.117 358.467 696.45 359.547 694.53 360.32C692.61 361.093 690.53 361.48 688.29 361.48ZM688.29 355.88C689.65 355.88 690.904 355.64 692.05 355.16C693.224 354.68 694.25 354.013 695.13 353.16C696.01 352.28 696.69 351.24 697.17 350.04C697.65 348.84 697.89 347.52 697.89 346.08C697.89 344.64 697.65 343.333 697.17 342.16C696.69 340.96 696.01 339.92 695.13 339.04C694.25 338.16 693.224 337.493 692.05 337.04C690.904 336.56 689.65 336.32 688.29 336.32C686.93 336.32 685.664 336.56 684.49 337.04C683.344 337.493 682.33 338.16 681.45 339.04C680.57 339.92 679.89 340.96 679.41 342.16C678.93 343.333 678.69 344.64 678.69 346.08C678.69 347.52 678.93 348.84 679.41 350.04C679.89 351.24 680.57 352.28 681.45 353.16C682.33 354.013 683.344 354.68 684.49 355.16C685.664 355.64 686.93 355.88 688.29 355.88ZM708.988 361V331.2H720.428C722.481 331.2 724.294 331.56 725.868 332.28C727.468 333 728.721 334.067 729.628 335.48C730.534 336.893 730.988 338.64 730.988 340.72C730.988 342.747 730.521 344.467 729.588 345.88C728.681 347.293 727.428 348.373 725.828 349.12C724.254 349.84 722.454 350.2 720.428 350.2H715.188V361H708.988ZM715.188 344.8H720.468C721.348 344.8 722.108 344.627 722.748 344.28C723.388 343.933 723.881 343.453 724.228 342.84C724.601 342.227 724.788 341.52 724.788 340.72C724.788 339.893 724.601 339.173 724.228 338.56C723.881 337.947 723.388 337.467 722.748 337.12C722.108 336.773 721.348 336.6 720.468 336.6H715.188V344.8ZM735.464 361V331.2H755.504V336.6H741.664V343.36H754.704V348.76H741.664V355.6H755.504V361H735.464ZM759.519 361V331.2H770.919C772.972 331.2 774.786 331.56 776.359 332.28C777.959 333 779.212 334.067 780.119 335.48C781.026 336.893 781.479 338.64 781.479 340.72C781.479 342.747 781.012 344.48 780.079 345.92C779.146 347.333 777.892 348.4 776.319 349.12L783.119 361H776.159L768.799 347.84L772.799 350.2H765.719V361H759.519ZM765.719 344.8H770.959C771.839 344.8 772.599 344.627 773.239 344.28C773.879 343.933 774.372 343.453 774.719 342.84C775.092 342.227 775.279 341.52 775.279 340.72C775.279 339.893 775.092 339.173 774.719 338.56C774.372 337.947 773.879 337.467 773.239 337.12C772.599 336.773 771.839 336.6 770.959 336.6H765.719V344.8Z" fill="#1B1B1B"/>
<path fill-rule="evenodd" clip-rule="evenodd" d="M961.936 60.3257C966.806 58.9806 971.904 58.302 976.85 57.6803C977.915 57.55 978.904 58.2773 978.981 59.3019C979.133 60.3272 978.371 61.2649 977.382 61.3953C972.589 61.9937 967.643 62.6341 963.002 63.929C962.012 64.2099 960.947 63.6317 960.642 62.6371C960.338 61.6432 960.947 60.6073 961.936 60.3257Z" fill="black"/>
<path fill-rule="evenodd" clip-rule="evenodd" d="M947.175 41.2546C955.012 33.3821 963.839 26.5229 971.524 18.4392C972.209 17.6843 973.426 17.6438 974.187 18.3486C974.948 19.0541 975.024 20.2405 974.263 20.9955C966.578 29.1024 957.751 35.984 949.914 43.8797C949.153 44.6167 947.936 44.6272 947.175 43.9022C946.49 43.1779 946.414 41.9916 947.175 41.2546Z" fill="black"/>
<path fill-rule="evenodd" clip-rule="evenodd" d="M932.489 10.9741C932.261 15.48 932.033 19.9858 931.804 24.4924C931.804 25.5245 930.891 26.3214 929.826 26.2712C928.76 26.2203 928 25.3418 928 24.3089C928.228 19.7956 928.456 15.283 928.684 10.7704C928.76 9.73831 929.674 8.94664 930.739 9.00281C931.728 9.05899 932.565 9.94278 932.489 10.9741Z" fill="black"/>
<g filter="url(#filter1_d_26_484)">
<path d="M375.152 9.19716C375.342 7.60095 377.658 7.60095 377.848 9.19716L379.437 22.588C381.488 39.8791 395.121 53.5118 412.412 55.5635L425.803 57.1523C427.399 57.3419 427.399 59.6581 425.803 59.8477L412.412 61.4365C395.121 63.4882 381.488 77.1209 379.437 94.4119L377.848 107.803C377.658 109.399 375.342 109.399 375.152 107.803L373.563 94.4119C371.512 77.1209 357.879 63.4882 340.588 61.4365L327.197 59.8477C325.601 59.6581 325.601 57.3419 327.197 57.1523L340.588 55.5635C357.879 53.5118 371.512 39.8791 373.563 22.588L375.152 9.19716Z" fill="#FFD45E"/>
<path d="M371.18 8.72544L371.18 8.72585L369.591 22.1166C367.757 37.5721 355.572 49.7575 340.117 51.5913L326.726 53.1802L326.725 53.1802C320.425 53.9285 320.425 63.0715 326.725 63.8198L326.726 63.8198L340.117 65.4087C355.572 67.2425 367.757 79.4279 369.591 94.8832L371.18 108.274L371.18 108.274C371.928 114.575 381.072 114.575 381.82 108.274L381.82 108.274L383.409 94.8832C385.243 79.4279 397.428 67.2425 412.883 65.4087L426.274 63.8198L426.274 63.8198C432.575 63.0716 432.575 53.9284 426.274 53.1802L426.274 53.1802L412.883 51.5913C397.428 49.7575 385.243 37.5721 383.409 22.1166L381.82 8.72585L381.82 8.72544C381.072 2.42485 371.928 2.42485 371.18 8.72544Z" stroke="white" stroke-width="8"/>
</g>
<g filter="url(#filter2_d_26_484)">
<path d="M109.659 294.481C111.442 291.994 112.238 289.285 112.242 286.655C113.119 283.181 113.296 279.492 112.632 275.737C109.902 260.292 94.2054 250.767 78.2075 253.594C68.4015 255.327 60.2927 261.382 56.1133 269.365C49.4505 263.298 39.7576 260.39 29.9516 262.123C13.9537 264.95 2.47294 279.279 5.20255 294.724C6.6989 303.19 12.0921 309.878 19.2955 313.727L60.9686 340.307C67.056 344.189 75.1267 342.663 79.3371 336.788L109.659 294.481Z" fill="#F45045" stroke="white" stroke-width="8"/>
</g>
<g filter="url(#filter3_d_26_484)">
<path d="M981.448 257.101C983.189 260.95 987.603 260.923 989.419 258.456L1001.5 187.37C1011.8 183.172 1018.79 187.384 1035.43 193.136C1051.38 198.65 1071.66 204.28 1063.51 185.418C1059.34 175.773 1013.31 169.155 997.167 186.633C988.672 166.157 949.222 156.463 937.98 164.083C918.355 177.386 945.234 181.018 957.273 179.852C981.539 177.503 993.53 186.015 993.53 186.015L981.448 257.101Z" fill="#76EC80"/>
<path d="M993.363 259.126L993.204 260.063L992.64 260.828C989 265.772 980.796 265.367 977.803 258.749L977.3 257.636L977.504 256.431L989.116 188.114C987.803 187.472 985.878 186.652 983.337 185.879C977.79 184.192 969.252 182.711 957.659 183.834C954.356 184.154 950.156 184.138 946.028 183.732C941.945 183.33 937.618 182.516 934.203 181.081C931.176 179.809 926.907 177.171 927.023 172.229C927.077 169.929 928.137 167.867 929.583 166.097C931.038 164.317 933.105 162.555 935.735 160.772C939.601 158.152 945.217 157.349 950.892 157.514C956.74 157.684 963.371 158.903 969.847 161.02C980.742 164.582 992.17 171.027 998.299 180.306C1002.49 177.236 1007.53 175.166 1012.77 173.836C1019.89 172.031 1027.7 171.507 1035.02 171.859C1042.34 172.211 1049.35 173.446 1054.91 175.283C1057.68 176.2 1060.21 177.305 1062.26 178.605C1064.23 179.855 1066.19 181.552 1067.18 183.832C1069.3 188.737 1070.22 193.4 1068.39 197.124C1066.39 201.182 1062.15 202.265 1058.68 202.415C1055.07 202.571 1050.84 201.824 1046.72 200.789C1042.53 199.737 1038.14 198.307 1034.12 196.917C1031.03 195.848 1028.36 194.868 1025.98 193.994C1021.65 192.409 1018.29 191.175 1015.14 190.408C1011.41 189.499 1008.4 189.372 1005.05 190.355L993.363 259.126Z" stroke="#84ED88" stroke-width="8"/>
<path d="M993.363 259.126L993.204 260.063L992.64 260.828C989 265.772 980.796 265.367 977.803 258.749L977.3 257.636L977.504 256.431L989.116 188.114C987.803 187.472 985.878 186.652 983.337 185.879C977.79 184.192 969.252 182.711 957.659 183.834C954.356 184.154 950.156 184.138 946.028 183.732C941.945 183.33 937.618 182.516 934.203 181.081C931.176 179.809 926.907 177.171 927.023 172.229C927.077 169.929 928.137 167.867 929.583 166.097C931.038 164.317 933.105 162.555 935.735 160.772C939.601 158.152 945.217 157.349 950.892 157.514C956.74 157.684 963.371 158.903 969.847 161.02C980.742 164.582 992.17 171.027 998.299 180.306C1002.49 177.236 1007.53 175.166 1012.77 173.836C1019.89 172.031 1027.7 171.507 1035.02 171.859C1042.34 172.211 1049.35 173.446 1054.91 175.283C1057.68 176.2 1060.21 177.305 1062.26 178.605C1064.23 179.855 1066.19 181.552 1067.18 183.832C1069.3 188.737 1070.22 193.4 1068.39 197.124C1066.39 201.182 1062.15 202.265 1058.68 202.415C1055.07 202.571 1050.84 201.824 1046.72 200.789C1042.53 199.737 1038.14 198.307 1034.12 196.917C1031.03 195.848 1028.36 194.868 1025.98 193.994C1021.65 192.409 1018.29 191.175 1015.14 190.408C1011.41 189.499 1008.4 189.372 1005.05 190.355L993.363 259.126Z" stroke="white" stroke-width="8"/>
</g>
<path d="M324.971 126.413C324.971 113.147 322.195 109.693 311.529 109.693C311.22 109.693 311 109.364 311 109.035C311 108.652 311.264 108.377 311.529 108.377C322.195 108.377 324.971 104.924 324.971 91.6578C324.971 91.2741 325.236 91 325.5 91C325.809 91 326.029 91.3289 326.029 91.6578C326.029 104.924 328.805 108.377 339.471 108.377C339.78 108.377 340 108.706 340 109.035C340 109.419 339.736 109.693 339.471 109.693C328.805 109.693 326.029 113.147 326.029 126.413C326.029 126.796 325.764 127.071 325.5 127.071C325.191 127.071 324.971 126.796 324.971 126.413ZM325.5 99.5517C324.574 105.034 322.327 107.829 317.919 108.98C322.327 110.132 324.574 112.927 325.5 118.409C326.426 112.927 328.673 110.132 333.081 108.98C328.673 107.829 326.426 105.034 325.5 99.5517Z" fill="#141414"/>
<defs>
<filter id="filter0_d_26_484" x="738.127" y="285.033" width="243.79" height="87.4859" filterUnits="userSpaceOnUse" color-interpolation-filters="sRGB">
<feFlood flood-opacity="0" result="BackgroundImageFix"/>
<feColorMatrix in="SourceAlpha" type="matrix" values="0 0 0 0 0 0 0 0 0 0 0 0 0 0 0 0 0 0 127 0" result="hardAlpha"/>
<feOffset dy="3.1154"/>
<feGaussianBlur stdDeviation="1.5577"/>
<feComposite in2="hardAlpha" operator="out"/>
<feColorMatrix type="matrix" values="0 0 0 0 0 0 0 0 0 0 0 0 0 0 0 0 0 0 0.3 0"/>
<feBlend mode="normal" in2="BackgroundImageFix" result="effect1_dropShadow_26_484"/>
<feBlend mode="normal" in="SourceGraphic" in2="effect1_dropShadow_26_484" result="shape"/>
</filter>
<filter id="filter1_d_26_484" x="318" y="0" width="123" height="123" filterUnits="userSpaceOnUse" color-interpolation-filters="sRGB">
<feFlood flood-opacity="0" result="BackgroundImageFix"/>
<feColorMatrix in="SourceAlpha" type="matrix" values="0 0 0 0 0 0 0 0 0 0 0 0 0 0 0 0 0 0 127 0" result="hardAlpha"/>
<feOffset dx="3" dy="3"/>
<feGaussianBlur stdDeviation="1.5"/>
<feComposite in2="hardAlpha" operator="out"/>
<feColorMatrix type="matrix" values="0 0 0 0 0 0 0 0 0 0 0 0 0 0 0 0 0 0 0.3 0"/>
<feBlend mode="normal" in2="BackgroundImageFix" result="effect1_dropShadow_26_484"/>
<feBlend mode="normal" in="SourceGraphic" in2="effect1_dropShadow_26_484" result="shape"/>
</filter>
<filter id="filter2_d_26_484" x="0.795166" y="249.103" width="122.244" height="103.346" filterUnits="userSpaceOnUse" color-interpolation-filters="sRGB">
<feFlood flood-opacity="0" result="BackgroundImageFix"/>
<feColorMatrix in="SourceAlpha" type="matrix" values="0 0 0 0 0 0 0 0 0 0 0 0 0 0 0 0 0 0 127 0" result="hardAlpha"/>
<feOffset dx="3" dy="3"/>
<feGaussianBlur stdDeviation="1.5"/>
<feComposite in2="hardAlpha" operator="out"/>
<feColorMatrix type="matrix" values="0 0 0 0 0 0 0 0 0 0 0 0 0 0 0 0 0 0 0.3 0"/>
<feBlend mode="normal" in2="BackgroundImageFix" result="effect1_dropShadow_26_484"/>
<feBlend mode="normal" in="SourceGraphic" in2="effect1_dropShadow_26_484" result="shape"/>
</filter>
<filter id="filter3_d_26_484" x="923.021" y="153.493" width="156.351" height="120.682" filterUnits="userSpaceOnUse" color-interpolation-filters="sRGB">
<feFlood flood-opacity="0" result="BackgroundImageFix"/>
<feColorMatrix in="SourceAlpha" type="matrix" values="0 0 0 0 0 0 0 0 0 0 0 0 0 0 0 0 0 0 127 0" result="hardAlpha"/>
<feOffset dx="3" dy="3"/>
<feGaussianBlur stdDeviation="1.5"/>
<feComposite in2="hardAlpha" operator="out"/>
<feColorMatrix type="matrix" values="0 0 0 0 0 0 0 0 0 0 0 0 0 0 0 0 0 0 0.3 0"/>
<feBlend mode="normal" in2="BackgroundImageFix" result="effect1_dropShadow_26_484"/>
<feBlend mode="normal" in="SourceGraphic" in2="effect1_dropShadow_26_484" result="shape"/>
</filter>
</defs>
</svg>
