<svg width="1080" height="375" viewBox="0 0 1080 375" fill="none" xmlns="http://www.w3.org/2000/svg">
<path d="M489.421 153.1C479.271 153.1 470.463 150.883 462.996 146.45C455.53 141.9 449.755 135.833 445.671 128.25C441.588 120.667 439.546 112.267 439.546 103.05C439.546 93.4833 441.646 84.9667 445.846 77.5C450.163 70.0333 455.938 64.1417 463.171 59.825C470.405 55.5083 478.571 53.35 487.671 53.35C495.255 53.35 501.963 54.575 507.796 57.025C513.63 59.3583 518.53 62.6833 522.496 67C526.58 71.3167 529.671 76.3333 531.771 82.05C533.871 87.65 534.921 93.775 534.921 100.425C534.921 102.292 534.805 104.158 534.571 106.025C534.455 107.775 534.163 109.292 533.696 110.575H462.121V91.325H518.821L506.396 100.425C507.563 95.4083 507.505 90.975 506.221 87.125C504.938 83.1583 502.663 80.0667 499.396 77.85C496.246 75.5167 492.338 74.35 487.671 74.35C483.121 74.35 479.213 75.4583 475.946 77.675C472.68 79.8917 470.23 83.1583 468.596 87.475C466.963 91.7917 466.321 97.0417 466.671 103.225C466.205 108.592 466.846 113.317 468.596 117.4C470.346 121.483 473.03 124.692 476.646 127.025C480.263 129.242 484.638 130.35 489.771 130.35C494.438 130.35 498.405 129.417 501.671 127.55C505.055 125.683 507.68 123.117 509.546 119.85L530.546 129.825C528.68 134.492 525.705 138.575 521.621 142.075C517.655 145.575 512.93 148.317 507.446 150.3C501.963 152.167 495.955 153.1 489.421 153.1ZM549.379 151V55.45H573.879V78.725L571.254 74.875C572.654 67.525 576.037 62.1 581.404 58.6C586.771 55.1 593.187 53.35 600.654 53.35C608.587 53.35 615.529 55.3917 621.479 59.475C627.546 63.4417 631.337 68.8083 632.854 75.575L625.329 76.275C628.479 68.4583 632.971 62.6833 638.804 58.95C644.637 55.2167 651.462 53.35 659.279 53.35C666.162 53.35 672.229 54.8667 677.479 57.9C682.846 60.9333 687.046 65.1917 690.079 70.675C693.112 76.0417 694.629 82.3417 694.629 89.575V151H668.379V95.175C668.379 91.4417 667.679 88.2333 666.279 85.55C664.996 82.8667 663.129 80.7667 660.679 79.25C658.229 77.7333 655.254 76.975 651.754 76.975C648.371 76.975 645.396 77.7333 642.829 79.25C640.379 80.7667 638.454 82.8667 637.054 85.55C635.771 88.2333 635.129 91.4417 635.129 95.175V151H608.879V95.175C608.879 91.4417 608.179 88.2333 606.779 85.55C605.496 82.8667 603.629 80.7667 601.179 79.25C598.729 77.7333 595.754 76.975 592.254 76.975C588.871 76.975 585.896 77.7333 583.329 79.25C580.879 80.7667 578.954 82.8667 577.554 85.55C576.271 88.2333 575.629 91.4417 575.629 95.175V151H549.379ZM710.903 151V55.45H737.153V151H710.903ZM710.903 46.875V20.625H737.153V46.875H710.903ZM755.362 151V18.525H781.612V151H755.362ZM799.821 151V55.45H826.071V151H799.821ZM799.821 46.875V20.625H826.071V46.875H799.821ZM873.855 153.1C866.972 153.1 861.022 151.992 856.005 149.775C850.989 147.558 847.139 144.408 844.455 140.325C841.772 136.125 840.43 131.167 840.43 125.45C840.43 120.083 841.655 115.358 844.105 111.275C846.555 107.075 850.289 103.575 855.305 100.775C860.439 97.975 866.797 95.9917 874.38 94.825L903.605 90.1V109.35L879.105 113.725C875.372 114.425 872.514 115.65 870.53 117.4C868.547 119.033 867.555 121.425 867.555 124.575C867.555 127.492 868.664 129.767 870.88 131.4C873.097 133.033 875.839 133.85 879.105 133.85C883.422 133.85 887.214 132.917 890.48 131.05C893.747 129.183 896.255 126.675 898.005 123.525C899.872 120.258 900.805 116.7 900.805 112.85V88C900.805 84.3833 899.347 81.35 896.43 78.9C893.63 76.45 889.78 75.225 884.88 75.225C880.214 75.225 876.072 76.5083 872.455 79.075C868.955 81.6417 866.389 85.025 864.755 89.225L843.755 79.25C845.622 73.8833 848.597 69.275 852.68 65.425C856.764 61.575 861.664 58.6 867.38 56.5C873.097 54.4 879.339 53.35 886.105 53.35C894.155 53.35 901.272 54.8083 907.455 57.725C913.639 60.6417 918.422 64.725 921.805 69.975C925.305 75.1083 927.055 81.1167 927.055 88V151H902.555V135.6L908.505 134.55C905.705 138.75 902.614 142.25 899.23 145.05C895.847 147.733 892.055 149.717 887.855 151C883.655 152.4 878.989 153.1 873.855 153.1ZM114.915 292L82.0153 196.45H109.14L132.24 265.4L122.79 265.225L148.515 196.45H171.265L196.815 265.225L187.365 265.4L210.465 196.45H237.765L204.69 292H181.94L155.34 218.15H164.44L137.665 292H114.915ZM248.334 292V196.45H274.584V292H248.334ZM248.334 187.875V161.625H274.584V187.875H248.334ZM292.793 292V159.525H319.043V292H292.793ZM337.252 292V159.525H363.502V292H337.252ZM381.711 292V196.45H407.961V292H381.711ZM381.711 187.875V161.625H407.961V187.875H381.711ZM455.745 294.1C448.862 294.1 442.912 292.992 437.895 290.775C432.879 288.558 429.029 285.408 426.345 281.325C423.662 277.125 422.32 272.167 422.32 266.45C422.32 261.083 423.545 256.358 425.995 252.275C428.445 248.075 432.179 244.575 437.195 241.775C442.329 238.975 448.687 236.992 456.27 235.825L485.495 231.1V250.35L460.995 254.725C457.262 255.425 454.404 256.65 452.42 258.4C450.437 260.033 449.445 262.425 449.445 265.575C449.445 268.492 450.554 270.767 452.77 272.4C454.987 274.033 457.729 274.85 460.995 274.85C465.312 274.85 469.104 273.917 472.37 272.05C475.637 270.183 478.145 267.675 479.895 264.525C481.762 261.258 482.695 257.7 482.695 253.85V229C482.695 225.383 481.237 222.35 478.32 219.9C475.52 217.45 471.67 216.225 466.77 216.225C462.104 216.225 457.962 217.508 454.345 220.075C450.845 222.642 448.279 226.025 446.645 230.225L425.645 220.25C427.512 214.883 430.487 210.275 434.57 206.425C438.654 202.575 443.554 199.6 449.27 197.5C454.987 195.4 461.229 194.35 467.995 194.35C476.045 194.35 483.162 195.808 489.345 198.725C495.529 201.642 500.312 205.725 503.695 210.975C507.195 216.108 508.945 222.117 508.945 229V292H484.445V276.6L490.395 275.55C487.595 279.75 484.504 283.25 481.12 286.05C477.737 288.733 473.945 290.717 469.745 292C465.545 293.4 460.879 294.1 455.745 294.1ZM527.197 292V196.45H551.697V219.725L549.072 215.875C550.472 208.525 553.855 203.1 559.222 199.6C564.588 196.1 571.005 194.35 578.472 194.35C586.405 194.35 593.347 196.392 599.297 200.475C605.363 204.442 609.155 209.808 610.672 216.575L603.147 217.275C606.297 209.458 610.788 203.683 616.622 199.95C622.455 196.217 629.28 194.35 637.097 194.35C643.98 194.35 650.047 195.867 655.297 198.9C660.663 201.933 664.863 206.192 667.897 211.675C670.93 217.042 672.447 223.342 672.447 230.575V292H646.197V236.175C646.197 232.442 645.497 229.233 644.097 226.55C642.813 223.867 640.947 221.767 638.497 220.25C636.047 218.733 633.072 217.975 629.572 217.975C626.188 217.975 623.213 218.733 620.647 220.25C618.197 221.767 616.272 223.867 614.872 226.55C613.588 229.233 612.947 232.442 612.947 236.175V292H586.697V236.175C586.697 232.442 585.997 229.233 584.597 226.55C583.313 223.867 581.447 221.767 578.997 220.25C576.547 218.733 573.572 217.975 570.072 217.975C566.688 217.975 563.713 218.733 561.147 220.25C558.697 221.767 556.772 223.867 555.372 226.55C554.088 229.233 553.447 232.442 553.447 236.175V292H527.197ZM726.171 294.1C715.671 294.1 706.513 291.65 698.696 286.75C690.996 281.733 685.746 275.025 682.946 266.625L702.196 257.525C704.646 262.658 707.971 266.683 712.171 269.6C716.371 272.517 721.038 273.975 726.171 273.975C729.905 273.975 732.763 273.217 734.746 271.7C736.73 270.183 737.721 268.083 737.721 265.4C737.721 264 737.371 262.833 736.671 261.9C735.971 260.85 734.921 259.917 733.521 259.1C732.121 258.283 730.371 257.583 728.271 257L711.996 252.45C704.18 250.233 698.171 246.675 693.971 241.775C689.771 236.758 687.671 230.867 687.671 224.1C687.671 218.15 689.188 212.958 692.221 208.525C695.255 204.092 699.513 200.65 704.996 198.2C710.48 195.633 716.78 194.35 723.896 194.35C733.23 194.35 741.396 196.567 748.396 201C755.513 205.317 760.53 211.442 763.446 219.375L744.021 228.475C742.621 224.508 740.055 221.358 736.321 219.025C732.705 216.575 728.563 215.35 723.896 215.35C720.513 215.35 717.83 216.05 715.846 217.45C713.98 218.85 713.046 220.775 713.046 223.225C713.046 224.508 713.396 225.675 714.096 226.725C714.796 227.775 715.905 228.708 717.421 229.525C719.055 230.342 721.038 231.1 723.371 231.8L738.596 236.35C746.53 238.683 752.596 242.242 756.796 247.025C760.996 251.692 763.096 257.467 763.096 264.35C763.096 270.3 761.521 275.492 758.371 279.925C755.338 284.358 751.08 287.858 745.596 290.425C740.113 292.875 733.638 294.1 726.171 294.1ZM825.21 294.1C815.76 294.1 807.126 291.942 799.31 287.625C791.61 283.308 785.426 277.417 780.76 269.95C776.21 262.367 773.935 253.792 773.935 244.225C773.935 234.542 776.21 225.967 780.76 218.5C785.426 211.033 791.61 205.142 799.31 200.825C807.126 196.508 815.76 194.35 825.21 194.35C834.66 194.35 843.235 196.508 850.935 200.825C858.635 205.142 864.76 211.033 869.31 218.5C873.976 225.967 876.31 234.542 876.31 244.225C876.31 253.792 873.976 262.367 869.31 269.95C864.76 277.417 858.635 283.308 850.935 287.625C843.235 291.942 834.66 294.1 825.21 294.1ZM825.21 270.475C829.993 270.475 834.135 269.367 837.635 267.15C841.251 264.933 844.051 261.842 846.035 257.875C848.135 253.908 849.185 249.358 849.185 244.225C849.185 239.092 848.135 234.6 846.035 230.75C844.051 226.783 841.251 223.692 837.635 221.475C834.135 219.142 829.993 217.975 825.21 217.975C820.426 217.975 816.226 219.142 812.61 221.475C808.993 223.692 806.135 226.783 804.035 230.75C802.051 234.6 801.06 239.092 801.06 244.225C801.06 249.358 802.051 253.908 804.035 257.875C806.135 261.842 808.993 264.933 812.61 267.15C816.226 269.367 820.426 270.475 825.21 270.475ZM890.774 292V196.45H915.274V215.35L913.874 211.15C916.091 205.433 919.649 201.233 924.549 198.55C929.566 195.75 935.399 194.35 942.049 194.35C949.282 194.35 955.582 195.867 960.949 198.9C966.432 201.933 970.691 206.192 973.724 211.675C976.757 217.042 978.274 223.342 978.274 230.575V292H952.024V236.175C952.024 232.442 951.266 229.233 949.749 226.55C948.349 223.867 946.307 221.767 943.624 220.25C941.057 218.733 938.024 217.975 934.524 217.975C931.141 217.975 928.107 218.733 925.424 220.25C922.741 221.767 920.641 223.867 919.124 226.55C917.724 229.233 917.024 232.442 917.024 236.175V292H890.774Z" fill="#1B1B1B"/>
<g filter="url(#filter0_d_26_484)">
<path d="M861.982 295.493C864.197 298.877 865.04 303.123 864.391 307.054C863.504 312.415 860.884 317.463 856.721 320.668C850.941 325.118 845.121 328.604 839.339 331.328C845.187 336.587 854.429 338.916 864.267 338.663C866.99 338.593 870.427 338.103 876.577 336.516C878.557 336.005 880.893 335.359 883.409 334.603C882.738 323.939 887.937 312.156 898.969 307.812M861.982 295.493L898.969 307.812M861.982 295.493C859.707 292.018 855.923 289.399 850.96 289.206C847.021 289.053 843.061 289.871 840.226 290.906C834.169 293.118 828.253 296.493 824.094 301.666C819.746 307.074 817.766 313.908 818.895 321.825C818.962 322.293 819.037 322.758 819.122 323.221M861.982 295.493L819.122 323.221M898.969 307.812C899.875 307.455 900.82 307.12 901.798 306.792C904.254 305.967 907.6 305.097 911.047 305.238C914.669 305.387 919.109 306.733 922.078 311.048C925.928 316.644 926.457 324.739 920.75 331.908C917.868 335.528 913.152 338.346 908.824 340.483C907.044 341.362 905.163 342.204 903.241 343.003M898.969 307.812L903.241 343.003M903.241 343.003C905.727 344.659 909.418 346.074 914.994 346.891C925.643 348.451 941.882 347.595 966.097 342.998C970.078 342.242 973.818 344.914 974.529 348.82C975.237 352.704 972.717 356.524 968.761 357.275C944.051 361.967 925.935 363.178 912.901 361.269C901.55 359.605 893.198 355.407 888.189 348.325C885.23 349.225 882.476 349.99 880.151 350.59C873.503 352.306 868.884 353.078 864.622 353.188C851.334 353.53 834.864 350.052 825.287 337.35C825.131 337.143 824.977 336.934 824.826 336.724C813.06 340.018 801.919 340.721 792.293 340.881C769.2 341.265 752.904 328.729 746.052 313.667C744.414 310.067 745.942 305.761 749.564 304.057L751.332 307.816L749.564 304.057C753.224 302.335 757.525 303.972 759.18 307.608C763.656 317.45 774.726 326.642 792.069 326.354C800.647 326.211 809.751 325.613 819.122 323.221M903.241 343.003L819.122 323.221M904.219 321.342L902.697 317.477L904.219 321.342C904.819 321.105 905.517 320.856 906.356 320.574C908.165 319.966 909.562 319.722 910.437 319.756C910.528 319.986 910.574 320.23 910.566 320.488C910.555 320.886 910.407 321.673 909.485 322.831C908.738 323.77 906.551 325.427 902.474 327.44C901.114 328.112 899.649 328.773 898.115 329.418C898.989 325.604 901.354 322.47 904.219 321.342ZM833.039 318.259C832.868 314.994 833.809 312.671 835.314 310.799C837.226 308.421 840.485 306.263 845.138 304.564C846.404 304.102 848.335 303.704 850.067 303.717C850.138 303.858 850.235 304.163 850.149 304.682C849.744 307.131 848.666 308.584 847.956 309.131C842.961 312.976 837.97 315.951 833.039 318.259ZM849.991 303.603C849.991 303.603 849.993 303.604 849.996 303.608C849.993 303.605 849.991 303.603 849.991 303.603Z" fill="#66C0F2" stroke="white" stroke-width="8.30774" stroke-linecap="round"/>
</g>
<path d="M133.792 354V324.2H154.192V329.6H139.992V337.16H152.192V342.56H139.992V354H133.792ZM169.609 354.48C167.262 354.48 165.169 353.987 163.329 353C161.489 352.013 160.036 350.667 158.969 348.96C157.929 347.227 157.409 345.267 157.409 343.08V324.2H163.609V342.68C163.609 343.853 163.862 344.92 164.369 345.88C164.902 346.813 165.622 347.547 166.529 348.08C167.436 348.613 168.462 348.88 169.609 348.88C170.782 348.88 171.809 348.613 172.689 348.08C173.596 347.547 174.302 346.813 174.809 345.88C175.342 344.92 175.609 343.853 175.609 342.68V324.2H181.809V343.08C181.809 345.267 181.276 347.227 180.209 348.96C179.169 350.667 177.729 352.013 175.889 353C174.049 353.987 171.956 354.48 169.609 354.48ZM187.214 354V324.2H193.414V348.6H206.014V354H187.214ZM209.589 354V324.2H215.789V348.6H228.389V354H209.589ZM250.492 354.48C248.625 354.48 246.865 354.147 245.212 353.48C243.585 352.787 242.172 351.813 240.972 350.56C239.798 349.307 238.918 347.827 238.332 346.12L243.412 343.84C244.158 345.467 245.185 346.747 246.492 347.68C247.825 348.613 249.292 349.08 250.892 349.08C251.745 349.08 252.478 348.947 253.092 348.68C253.705 348.413 254.185 348.053 254.532 347.6C254.878 347.12 255.052 346.56 255.052 345.92C255.052 345.227 254.838 344.64 254.412 344.16C253.985 343.653 253.318 343.253 252.412 342.96L246.572 341.04C244.198 340.267 242.412 339.173 241.212 337.76C240.012 336.32 239.412 334.6 239.412 332.6C239.412 330.84 239.838 329.293 240.692 327.96C241.572 326.627 242.785 325.587 244.332 324.84C245.905 324.093 247.705 323.72 249.732 323.72C251.518 323.72 253.172 324.027 254.692 324.64C256.212 325.253 257.518 326.12 258.612 327.24C259.732 328.36 260.572 329.707 261.132 331.28L256.092 333.56C255.532 332.173 254.692 331.093 253.572 330.32C252.452 329.52 251.172 329.12 249.732 329.12C248.905 329.12 248.172 329.253 247.532 329.52C246.892 329.787 246.398 330.173 246.052 330.68C245.705 331.16 245.532 331.72 245.532 332.36C245.532 333.053 245.758 333.667 246.212 334.2C246.665 334.707 247.345 335.107 248.252 335.4L253.972 337.24C256.372 338.013 258.158 339.093 259.332 340.48C260.532 341.867 261.132 343.56 261.132 345.56C261.132 347.293 260.678 348.84 259.772 350.2C258.865 351.533 257.612 352.587 256.012 353.36C254.438 354.107 252.598 354.48 250.492 354.48ZM271.41 354V329.6H263.85V324.2H285.05V329.6H277.61V354H271.41ZM284.428 354L294.508 324.2H302.748L312.828 354H306.068L304.068 347.92H293.148L291.148 354H284.428ZM294.868 342.52H302.348L297.788 328.44H299.468L294.868 342.52ZM329.374 354.48C327.241 354.48 325.254 354.093 323.414 353.32C321.601 352.547 320.014 351.467 318.654 350.08C317.294 348.693 316.228 347.067 315.454 345.2C314.708 343.333 314.334 341.293 314.334 339.08C314.334 336.867 314.708 334.827 315.454 332.96C316.201 331.067 317.254 329.44 318.614 328.08C319.974 326.693 321.561 325.627 323.374 324.88C325.214 324.107 327.214 323.72 329.374 323.72C331.534 323.72 333.468 324.08 335.174 324.8C336.908 325.52 338.374 326.48 339.574 327.68C340.774 328.88 341.628 330.213 342.134 331.68L336.654 334.32C336.148 332.88 335.254 331.693 333.974 330.76C332.721 329.8 331.188 329.32 329.374 329.32C327.614 329.32 326.068 329.733 324.734 330.56C323.401 331.387 322.361 332.533 321.614 334C320.894 335.44 320.534 337.133 320.534 339.08C320.534 341.027 320.894 342.733 321.614 344.2C322.361 345.667 323.401 346.813 324.734 347.64C326.068 348.467 327.614 348.88 329.374 348.88C331.188 348.88 332.721 348.413 333.974 347.48C335.254 346.52 336.148 345.32 336.654 343.88L342.134 346.52C341.628 347.987 340.774 349.32 339.574 350.52C338.374 351.72 336.908 352.68 335.174 353.4C333.468 354.12 331.534 354.48 329.374 354.48ZM346.613 354V324.2H352.813V339.12L351.093 338.52L363.013 324.2H370.773L358.973 338.44L359.333 334.04L371.013 354H363.773L356.493 341.4L352.813 345.84V354H346.613ZM387.861 354L380.061 324.2H386.781L392.661 349.16H390.861L397.061 324.2H403.461L409.661 349.16H407.861L413.741 324.2H420.461L412.661 354H405.461L399.221 330H401.301L395.061 354H387.861ZM424.05 354V324.2H444.09V329.6H430.25V336.36H443.29V341.76H430.25V348.6H444.09V354H424.05ZM448.105 354V324.2H460.705C462.758 324.2 464.518 324.547 465.985 325.24C467.452 325.933 468.572 326.933 469.345 328.24C470.118 329.52 470.505 331.08 470.505 332.92C470.505 334.227 470.145 335.48 469.425 336.68C468.705 337.853 467.518 338.84 465.865 339.64V336.6C467.438 337.213 468.652 337.947 469.505 338.8C470.358 339.653 470.945 340.587 471.265 341.6C471.585 342.587 471.745 343.627 471.745 344.72C471.745 347.653 470.772 349.933 468.825 351.56C466.878 353.187 464.172 354 460.705 354H448.105ZM454.305 348.6H461.425C462.678 348.6 463.678 348.24 464.425 347.52C465.172 346.8 465.545 345.867 465.545 344.72C465.545 343.547 465.172 342.6 464.425 341.88C463.678 341.16 462.678 340.8 461.425 340.8H454.305V348.6ZM454.305 335.4H461.145C462.105 335.4 462.865 335.133 463.425 334.6C464.012 334.04 464.305 333.307 464.305 332.4C464.305 331.493 464.012 330.773 463.425 330.24C462.865 329.68 462.105 329.4 461.145 329.4H454.305V335.4ZM483.91 354V324.2H493.63C496.856 324.2 499.656 324.84 502.03 326.12C504.403 327.4 506.243 329.16 507.55 331.4C508.856 333.64 509.51 336.2 509.51 339.08C509.51 341.96 508.856 344.533 507.55 346.8C506.243 349.04 504.403 350.8 502.03 352.08C499.656 353.36 496.856 354 493.63 354H483.91ZM490.11 348.6H493.79C495.736 348.6 497.416 348.213 498.83 347.44C500.243 346.64 501.336 345.533 502.11 344.12C502.91 342.68 503.31 341 503.31 339.08C503.31 337.133 502.91 335.453 502.11 334.04C501.336 332.627 500.243 331.533 498.83 330.76C497.416 329.987 495.736 329.6 493.79 329.6H490.11V348.6ZM513.98 354V324.2H534.02V329.6H520.18V336.36H533.22V341.76H520.18V348.6H534.02V354H513.98ZM546.035 354L535.835 324.2H542.635L550.315 348.12H548.955L556.635 324.2H563.435L553.235 354H546.035ZM567.011 354V324.2H587.051V329.6H573.211V336.36H586.251V341.76H573.211V348.6H587.051V354H567.011ZM591.066 354V324.2H597.266V348.6H609.866V354H591.066ZM627.58 354.48C625.34 354.48 623.26 354.093 621.34 353.32C619.42 352.547 617.74 351.467 616.3 350.08C614.886 348.667 613.78 347.027 612.98 345.16C612.18 343.293 611.78 341.267 611.78 339.08C611.78 336.893 612.166 334.867 612.94 333C613.74 331.133 614.846 329.507 616.26 328.12C617.7 326.733 619.38 325.653 621.3 324.88C623.22 324.107 625.313 323.72 627.58 323.72C629.846 323.72 631.94 324.107 633.86 324.88C635.78 325.653 637.446 326.733 638.86 328.12C640.3 329.507 641.406 331.133 642.18 333C642.98 334.867 643.38 336.893 643.38 339.08C643.38 341.267 642.98 343.293 642.18 345.16C641.38 347.027 640.26 348.667 638.82 350.08C637.406 351.467 635.74 352.547 633.82 353.32C631.9 354.093 629.82 354.48 627.58 354.48ZM627.58 348.88C628.94 348.88 630.193 348.64 631.34 348.16C632.513 347.68 633.54 347.013 634.42 346.16C635.3 345.28 635.98 344.24 636.46 343.04C636.94 341.84 637.18 340.52 637.18 339.08C637.18 337.64 636.94 336.333 636.46 335.16C635.98 333.96 635.3 332.92 634.42 332.04C633.54 331.16 632.513 330.493 631.34 330.04C630.193 329.56 628.94 329.32 627.58 329.32C626.22 329.32 624.953 329.56 623.78 330.04C622.633 330.493 621.62 331.16 620.74 332.04C619.86 332.92 619.18 333.96 618.7 335.16C618.22 336.333 617.98 337.64 617.98 339.08C617.98 340.52 618.22 341.84 618.7 343.04C619.18 344.24 619.86 345.28 620.74 346.16C621.62 347.013 622.633 347.68 623.78 348.16C624.953 348.64 626.22 348.88 627.58 348.88ZM648.277 354V324.2H659.717C661.77 324.2 663.583 324.56 665.157 325.28C666.757 326 668.01 327.067 668.917 328.48C669.823 329.893 670.277 331.64 670.277 333.72C670.277 335.747 669.81 337.467 668.877 338.88C667.97 340.293 666.717 341.373 665.117 342.12C663.543 342.84 661.743 343.2 659.717 343.2H654.477V354H648.277ZM654.477 337.8H659.757C660.637 337.8 661.397 337.627 662.037 337.28C662.677 336.933 663.17 336.453 663.517 335.84C663.89 335.227 664.077 334.52 664.077 333.72C664.077 332.893 663.89 332.173 663.517 331.56C663.17 330.947 662.677 330.467 662.037 330.12C661.397 329.773 660.637 329.6 659.757 329.6H654.477V337.8ZM674.753 354V324.2H694.793V329.6H680.953V336.36H693.993V341.76H680.953V348.6H694.793V354H674.753ZM698.808 354V324.2H710.208C712.261 324.2 714.075 324.56 715.648 325.28C717.248 326 718.501 327.067 719.408 328.48C720.315 329.893 720.768 331.64 720.768 333.72C720.768 335.747 720.301 337.48 719.368 338.92C718.435 340.333 717.181 341.4 715.608 342.12L722.408 354H715.448L708.088 340.84L712.088 343.2H705.008V354H698.808ZM705.008 337.8H710.248C711.128 337.8 711.888 337.627 712.528 337.28C713.168 336.933 713.661 336.453 714.008 335.84C714.381 335.227 714.568 334.52 714.568 333.72C714.568 332.893 714.381 332.173 714.008 331.56C713.661 330.947 713.168 330.467 712.528 330.12C711.888 329.773 711.128 329.6 710.248 329.6H705.008V337.8Z" fill="#1B1B1B"/>
<path fill-rule="evenodd" clip-rule="evenodd" d="M961.936 60.3257C966.806 58.9806 971.904 58.302 976.85 57.6803C977.915 57.55 978.904 58.2773 978.981 59.3019C979.133 60.3272 978.371 61.2649 977.382 61.3953C972.589 61.9937 967.643 62.6341 963.002 63.929C962.012 64.2099 960.947 63.6317 960.642 62.6371C960.338 61.6432 960.947 60.6073 961.936 60.3257Z" fill="black"/>
<path fill-rule="evenodd" clip-rule="evenodd" d="M947.175 41.2546C955.012 33.3821 963.839 26.5229 971.524 18.4392C972.209 17.6843 973.426 17.6438 974.187 18.3486C974.948 19.0541 975.024 20.2405 974.263 20.9955C966.578 29.1024 957.751 35.984 949.914 43.8797C949.153 44.6167 947.936 44.6272 947.175 43.9022C946.49 43.1779 946.414 41.9916 947.175 41.2546Z" fill="black"/>
<path fill-rule="evenodd" clip-rule="evenodd" d="M932.489 10.9741C932.261 15.48 932.033 19.9858 931.804 24.4924C931.804 25.5245 930.891 26.3214 929.826 26.2712C928.76 26.2203 928 25.3418 928 24.3089C928.228 19.7956 928.456 15.283 928.684 10.7704C928.76 9.73831 929.674 8.94664 930.739 9.00281C931.728 9.05899 932.565 9.94278 932.489 10.9741Z" fill="black"/>
<g filter="url(#filter1_d_26_484)">
<path d="M375.152 9.19716C375.342 7.60095 377.658 7.60095 377.848 9.19716L379.437 22.588C381.488 39.8791 395.121 53.5118 412.412 55.5635L425.803 57.1523C427.399 57.3419 427.399 59.6581 425.803 59.8477L412.412 61.4365C395.121 63.4882 381.488 77.1209 379.437 94.4119L377.848 107.803C377.658 109.399 375.342 109.399 375.152 107.803L373.563 94.4119C371.512 77.1209 357.879 63.4882 340.588 61.4365L327.197 59.8477C325.601 59.6581 325.601 57.3419 327.197 57.1523L340.588 55.5635C357.879 53.5118 371.512 39.8791 373.563 22.588L375.152 9.19716Z" fill="#FFD45E"/>
<path d="M371.18 8.72544L371.18 8.72585L369.591 22.1166C367.757 37.5721 355.572 49.7575 340.117 51.5913L326.726 53.1802L326.725 53.1802C320.425 53.9285 320.425 63.0715 326.725 63.8198L326.726 63.8198L340.117 65.4087C355.572 67.2425 367.757 79.4279 369.591 94.8832L371.18 108.274L371.18 108.274C371.928 114.575 381.072 114.575 381.82 108.274L381.82 108.274L383.409 94.8832C385.243 79.4279 397.428 67.2425 412.883 65.4087L426.274 63.8198L426.274 63.8198C432.575 63.0716 432.575 53.9284 426.274 53.1802L426.274 53.1802L412.883 51.5913C397.428 49.7575 385.243 37.5721 383.409 22.1166L381.82 8.72585L381.82 8.72544C381.072 2.42485 371.928 2.42485 371.18 8.72544Z" stroke="white" stroke-width="8"/>
</g>
<g filter="url(#filter2_d_26_484)">
<path d="M109.659 294.481C111.442 291.994 112.238 289.285 112.242 286.655C113.119 283.181 113.296 279.492 112.632 275.737C109.902 260.292 94.2054 250.767 78.2075 253.594C68.4015 255.327 60.2927 261.382 56.1133 269.365C49.4505 263.298 39.7576 260.39 29.9516 262.123C13.9537 264.95 2.47294 279.279 5.20255 294.724C6.6989 303.19 12.0921 309.878 19.2955 313.727L60.9686 340.307C67.056 344.189 75.1266 342.663 79.337 336.788L109.659 294.481Z" fill="#F45045" stroke="white" stroke-width="8"/>
</g>
<g filter="url(#filter3_d_26_484)">
<path d="M981.448 257.101C983.189 260.95 987.603 260.923 989.419 258.456L1001.5 187.37C1011.8 183.172 1018.79 187.384 1035.43 193.136C1051.38 198.65 1071.66 204.28 1063.51 185.418C1059.34 175.773 1013.31 169.155 997.167 186.633C988.672 166.157 949.222 156.463 937.98 164.083C918.355 177.386 945.234 181.018 957.273 179.852C981.539 177.503 993.53 186.015 993.53 186.015L981.448 257.101Z" fill="#76EC80"/>
<path d="M977.803 258.749L977.3 257.636L977.504 256.431L989.116 188.114C987.803 187.472 985.878 186.652 983.337 185.879C977.79 184.192 969.252 182.711 957.659 183.834C954.356 184.154 950.156 184.138 946.028 183.732C941.945 183.33 937.618 182.516 934.203 181.081C931.176 179.809 926.907 177.171 927.023 172.229C927.077 169.929 928.137 167.867 929.583 166.097C931.038 164.317 933.105 162.555 935.735 160.772C939.601 158.152 945.217 157.349 950.892 157.514C956.74 157.684 963.371 158.903 969.847 161.02C980.742 164.582 992.17 171.027 998.299 180.306C1002.49 177.236 1007.53 175.166 1012.77 173.836C1019.89 172.031 1027.7 171.507 1035.02 171.859C1042.34 172.211 1049.35 173.446 1054.91 175.283C1057.68 176.2 1060.21 177.305 1062.26 178.605C1064.23 179.855 1066.19 181.552 1067.18 183.832C1069.3 188.737 1070.22 193.4 1068.39 197.124C1066.39 201.182 1062.15 202.265 1058.68 202.415C1055.07 202.571 1050.84 201.824 1046.72 200.789C1042.53 199.737 1038.14 198.307 1034.12 196.917C1031.03 195.848 1028.36 194.868 1025.98 193.994C1021.65 192.409 1018.29 191.175 1015.14 190.408C1011.41 189.499 1008.4 189.372 1005.05 190.355L993.363 259.126L993.204 260.063L992.64 260.828C989 265.772 980.796 265.367 977.803 258.749Z" stroke="#84ED88" stroke-width="8"/>
<path d="M977.803 258.749L977.3 257.636L977.504 256.431L989.116 188.114C987.803 187.472 985.878 186.652 983.337 185.879C977.79 184.192 969.252 182.711 957.659 183.834C954.356 184.154 950.156 184.138 946.028 183.732C941.945 183.33 937.618 182.516 934.203 181.081C931.176 179.809 926.907 177.171 927.023 172.229C927.077 169.929 928.137 167.867 929.583 166.097C931.038 164.317 933.105 162.555 935.735 160.772C939.601 158.152 945.217 157.349 950.892 157.514C956.74 157.684 963.371 158.903 969.847 161.02C980.742 164.582 992.17 171.027 998.299 180.306C1002.49 177.236 1007.53 175.166 1012.77 173.836C1019.89 172.031 1027.7 171.507 1035.02 171.859C1042.34 172.211 1049.35 173.446 1054.91 175.283C1057.68 176.2 1060.21 177.305 1062.26 178.605C1064.23 179.855 1066.19 181.552 1067.18 183.832C1069.3 188.737 1070.22 193.4 1068.39 197.124C1066.39 201.182 1062.15 202.265 1058.68 202.415C1055.07 202.571 1050.84 201.824 1046.72 200.789C1042.53 199.737 1038.14 198.307 1034.12 196.917C1031.03 195.848 1028.36 194.868 1025.98 193.994C1021.65 192.409 1018.29 191.175 1015.14 190.408C1011.41 189.499 1008.4 189.372 1005.05 190.355L993.363 259.126L993.204 260.063L992.64 260.828C989 265.772 980.796 265.367 977.803 258.749Z" stroke="white" stroke-width="8"/>
</g>
<path d="M324.971 126.413C324.971 113.147 322.195 109.693 311.529 109.693C311.22 109.693 311 109.364 311 109.035C311 108.652 311.264 108.377 311.529 108.377C322.195 108.377 324.971 104.924 324.971 91.6578C324.971 91.2741 325.236 91 325.5 91C325.809 91 326.029 91.3289 326.029 91.6578C326.029 104.924 328.805 108.377 339.471 108.377C339.78 108.377 340 108.706 340 109.035C340 109.419 339.736 109.693 339.471 109.693C328.805 109.693 326.029 113.147 326.029 126.413C326.029 126.796 325.764 127.071 325.5 127.071C325.191 127.071 324.971 126.796 324.971 126.413ZM325.5 99.5517C324.574 105.034 322.327 107.829 317.919 108.98C322.327 110.132 324.574 112.927 325.5 118.409C326.426 112.927 328.673 110.132 333.081 108.98C328.673 107.829 326.426 105.034 325.5 99.5517Z" fill="#141414"/>
<defs>
<filter id="filter0_d_26_484" x="738.127" y="285.033" width="243.79" height="87.4859" filterUnits="userSpaceOnUse" color-interpolation-filters="sRGB">
<feFlood flood-opacity="0" result="BackgroundImageFix"/>
<feColorMatrix in="SourceAlpha" type="matrix" values="0 0 0 0 0 0 0 0 0 0 0 0 0 0 0 0 0 0 127 0" result="hardAlpha"/>
<feOffset dy="3.1154"/>
<feGaussianBlur stdDeviation="1.5577"/>
<feComposite in2="hardAlpha" operator="out"/>
<feColorMatrix type="matrix" values="0 0 0 0 0 0 0 0 0 0 0 0 0 0 0 0 0 0 0.3 0"/>
<feBlend mode="normal" in2="BackgroundImageFix" result="effect1_dropShadow_26_484"/>
<feBlend mode="normal" in="SourceGraphic" in2="effect1_dropShadow_26_484" result="shape"/>
</filter>
<filter id="filter1_d_26_484" x="318" y="0" width="123" height="123" filterUnits="userSpaceOnUse" color-interpolation-filters="sRGB">
<feFlood flood-opacity="0" result="BackgroundImageFix"/>
<feColorMatrix in="SourceAlpha" type="matrix" values="0 0 0 0 0 0 0 0 0 0 0 0 0 0 0 0 0 0 127 0" result="hardAlpha"/>
<feOffset dx="3" dy="3"/>
<feGaussianBlur stdDeviation="1.5"/>
<feComposite in2="hardAlpha" operator="out"/>
<feColorMatrix type="matrix" values="0 0 0 0 0 0 0 0 0 0 0 0 0 0 0 0 0 0 0.3 0"/>
<feBlend mode="normal" in2="BackgroundImageFix" result="effect1_dropShadow_26_484"/>
<feBlend mode="normal" in="SourceGraphic" in2="effect1_dropShadow_26_484" result="shape"/>
</filter>
<filter id="filter2_d_26_484" x="0.795166" y="249.103" width="122.244" height="103.346" filterUnits="userSpaceOnUse" color-interpolation-filters="sRGB">
<feFlood flood-opacity="0" result="BackgroundImageFix"/>
<feColorMatrix in="SourceAlpha" type="matrix" values="0 0 0 0 0 0 0 0 0 0 0 0 0 0 0 0 0 0 127 0" result="hardAlpha"/>
<feOffset dx="3" dy="3"/>
<feGaussianBlur stdDeviation="1.5"/>
<feComposite in2="hardAlpha" operator="out"/>
<feColorMatrix type="matrix" values="0 0 0 0 0 0 0 0 0 0 0 0 0 0 0 0 0 0 0.3 0"/>
<feBlend mode="normal" in2="BackgroundImageFix" result="effect1_dropShadow_26_484"/>
<feBlend mode="normal" in="SourceGraphic" in2="effect1_dropShadow_26_484" result="shape"/>
</filter>
<filter id="filter3_d_26_484" x="923.021" y="153.493" width="156.351" height="120.682" filterUnits="userSpaceOnUse" color-interpolation-filters="sRGB">
<feFlood flood-opacity="0" result="BackgroundImageFix"/>
<feColorMatrix in="SourceAlpha" type="matrix" values="0 0 0 0 0 0 0 0 0 0 0 0 0 0 0 0 0 0 127 0" result="hardAlpha"/>
<feOffset dx="3" dy="3"/>
<feGaussianBlur stdDeviation="1.5"/>
<feComposite in2="hardAlpha" operator="out"/>
<feColorMatrix type="matrix" values="0 0 0 0 0 0 0 0 0 0 0 0 0 0 0 0 0 0 0.3 0"/>
<feBlend mode="normal" in2="BackgroundImageFix" result="effect1_dropShadow_26_484"/>
<feBlend mode="normal" in="SourceGraphic" in2="effect1_dropShadow_26_484" result="shape"/>
</filter>
</defs>
</svg>
