<svg width="552" height="124" viewBox="0 0 552 124" fill="none" xmlns="http://www.w3.org/2000/svg">
<path d="M45.7793 81V26.4H59.7793V39.7L58.2793 37.5C59.0793 33.3 61.0126 30.2 64.0793 28.2C67.146 26.2 70.8126 25.2 75.0793 25.2C79.6126 25.2 83.5793 26.3667 86.9793 28.7C90.446 30.9667 92.6126 34.0333 93.4793 37.9L89.1793 38.3C90.9793 33.8333 93.546 30.5333 96.8793 28.4C100.213 26.2667 104.113 25.2 108.579 25.2C112.513 25.2 115.979 26.0667 118.979 27.8C122.046 29.5333 124.446 31.9667 126.179 35.1C127.913 38.1667 128.779 41.7667 128.779 45.9V81H113.779V49.1C113.779 46.9667 113.379 45.1333 112.579 43.6C111.846 42.0667 110.779 40.8667 109.379 40C107.979 39.1333 106.279 38.7 104.279 38.7C102.346 38.7 100.646 39.1333 99.1793 40C97.7793 40.8667 96.6793 42.0667 95.8793 43.6C95.146 45.1333 94.7793 46.9667 94.7793 49.1V81H79.7793V49.1C79.7793 46.9667 79.3793 45.1333 78.5793 43.6C77.846 42.0667 76.7793 40.8667 75.3793 40C73.9793 39.1333 72.2793 38.7 70.2793 38.7C68.346 38.7 66.646 39.1333 65.1793 40C63.7793 40.8667 62.6793 42.0667 61.8793 43.6C61.146 45.1333 60.7793 46.9667 60.7793 49.1V81H45.7793ZM145.174 103.2C143.574 103.2 142.007 103.067 140.474 102.8C139.007 102.533 137.707 102.1 136.574 101.5V89.2C137.507 89.4667 138.607 89.7 139.874 89.9C141.14 90.1 142.307 90.2 143.374 90.2C146.307 90.2 148.407 89.5 149.674 88.1C150.94 86.7 151.974 85.1 152.774 83.3L156.474 74.8L156.274 87.3L132.274 26.4H148.374L164.274 69.7H158.274L174.174 26.4H190.274L166.874 86.1C165.407 89.9 163.607 93.0667 161.474 95.6C159.34 98.1333 156.907 100.033 154.174 101.3C151.507 102.567 148.507 103.2 145.174 103.2ZM234.199 82.2C228.199 82.2 222.965 80.8 218.499 78C214.099 75.1333 211.099 71.3 209.499 66.5L220.499 61.3C221.899 64.2333 223.799 66.5333 226.199 68.2C228.599 69.8667 231.265 70.7 234.199 70.7C236.332 70.7 237.965 70.2667 239.099 69.4C240.232 68.5333 240.799 67.3333 240.799 65.8C240.799 65 240.599 64.3333 240.199 63.8C239.799 63.2 239.199 62.6667 238.399 62.2C237.599 61.7333 236.599 61.3333 235.399 61L226.099 58.4C221.632 57.1333 218.199 55.1 215.799 52.3C213.399 49.4333 212.199 46.0667 212.199 42.2C212.199 38.8 213.065 35.8333 214.799 33.3C216.532 30.7667 218.965 28.8 222.099 27.4C225.232 25.9333 228.832 25.2 232.899 25.2C238.232 25.2 242.899 26.4667 246.899 29C250.965 31.4667 253.832 34.9667 255.499 39.5L244.399 44.7C243.599 42.4333 242.132 40.6333 239.999 39.3C237.932 37.9 235.565 37.2 232.899 37.2C230.965 37.2 229.432 37.6 228.299 38.4C227.232 39.2 226.699 40.3 226.699 41.7C226.699 42.4333 226.899 43.1 227.299 43.7C227.699 44.3 228.332 44.8333 229.199 45.3C230.132 45.7667 231.265 46.2 232.599 46.6L241.299 49.2C245.832 50.5333 249.299 52.5667 251.699 55.3C254.099 57.9667 255.299 61.2667 255.299 65.2C255.299 68.6 254.399 71.5667 252.599 74.1C250.865 76.6333 248.432 78.6333 245.299 80.1C242.165 81.5 238.465 82.2 234.199 82.2ZM289.564 81.6C282.964 81.6 277.83 79.8333 274.164 76.3C270.564 72.7 268.764 67.7 268.764 61.3V39.4H259.564V26.4H260.064C262.864 26.4 264.997 25.7 266.464 24.3C267.997 22.9 268.764 20.8 268.764 18V14H283.764V26.4H296.564V39.4H283.764V60.3C283.764 62.1667 284.097 63.7333 284.764 65C285.43 66.2 286.464 67.1 287.864 67.7C289.264 68.3 290.997 68.6 293.064 68.6C293.53 68.6 294.064 68.5667 294.664 68.5C295.264 68.4333 295.897 68.3667 296.564 68.3V81C295.564 81.1333 294.43 81.2667 293.164 81.4C291.897 81.5333 290.697 81.6 289.564 81.6ZM331.454 82.2C326.054 82.2 321.12 80.9667 316.654 78.5C312.254 76.0333 308.72 72.6667 306.054 68.4C303.454 64.0667 302.154 59.1667 302.154 53.7C302.154 48.1667 303.454 43.2667 306.054 39C308.72 34.7333 312.254 31.3667 316.654 28.9C321.12 26.4333 326.054 25.2 331.454 25.2C336.854 25.2 341.754 26.4333 346.154 28.9C350.554 31.3667 354.054 34.7333 356.654 39C359.32 43.2667 360.654 48.1667 360.654 53.7C360.654 59.1667 359.32 64.0667 356.654 68.4C354.054 72.6667 350.554 76.0333 346.154 78.5C341.754 80.9667 336.854 82.2 331.454 82.2ZM331.454 68.7C334.187 68.7 336.554 68.0667 338.554 66.8C340.62 65.5333 342.22 63.7667 343.354 61.5C344.554 59.2333 345.154 56.6333 345.154 53.7C345.154 50.7667 344.554 48.2 343.354 46C342.22 43.7333 340.62 41.9667 338.554 40.7C336.554 39.3667 334.187 38.7 331.454 38.7C328.72 38.7 326.32 39.3667 324.254 40.7C322.187 41.9667 320.554 43.7333 319.354 46C318.22 48.2 317.654 50.7667 317.654 53.7C317.654 56.6333 318.22 59.2333 319.354 61.5C320.554 63.7667 322.187 65.5333 324.254 66.8C326.32 68.0667 328.72 68.7 331.454 68.7ZM368.49 81V26.4H382.49V39.5L381.49 37.6C382.69 33 384.657 29.9 387.39 28.3C390.19 26.6333 393.49 25.8 397.29 25.8H400.49V38.8H395.79C392.124 38.8 389.157 39.9333 386.89 42.2C384.624 44.4 383.49 47.5333 383.49 51.6V81H368.49ZM414.564 103.2C412.964 103.2 411.398 103.067 409.864 102.8C408.398 102.533 407.098 102.1 405.964 101.5V89.2C406.898 89.4667 407.998 89.7 409.264 89.9C410.531 90.1 411.698 90.2 412.764 90.2C415.698 90.2 417.798 89.5 419.064 88.1C420.331 86.7 421.364 85.1 422.164 83.3L425.864 74.8L425.664 87.3L401.664 26.4H417.764L433.664 69.7H427.664L443.564 26.4H459.664L436.264 86.1C434.798 89.9 432.998 93.0667 430.864 95.6C428.731 98.1333 426.298 100.033 423.564 101.3C420.898 102.567 417.898 103.2 414.564 103.2Z" fill="#1B1B1B"/>
<path d="M13.9711 58.4127C13.9711 45.1467 11.1945 41.6931 0.528874 41.6931C0.220363 41.6931 0 41.3642 0 41.0353C0 40.6515 0.264436 40.3774 0.528874 40.3774C11.1945 40.3774 13.9711 36.9239 13.9711 23.6578C13.9711 23.2741 14.2356 23 14.5 23C14.8085 23 15.0289 23.3289 15.0289 23.6578C15.0289 36.9239 17.8055 40.3774 28.4711 40.3774C28.7796 40.3774 29 40.7064 29 41.0353C29 41.419 28.7356 41.6931 28.4711 41.6931C17.8055 41.6931 15.0289 45.1467 15.0289 58.4127C15.0289 58.7964 14.7644 59.0705 14.5 59.0705C14.1915 59.0705 13.9711 58.7964 13.9711 58.4127ZM14.5 31.5517C13.5745 37.0335 11.3267 39.8293 6.91945 40.9805C11.3267 42.1316 13.5745 44.9274 14.5 50.4092C15.4255 44.9274 17.6733 42.1316 22.0805 40.9805C17.6733 39.8293 15.4255 37.0335 14.5 31.5517Z" fill="#141414"/>
<g filter="url(#filter0_d_36_507)">
<path fill-rule="evenodd" clip-rule="evenodd" d="M538.852 75.988C536.663 95.3704 519.243 109.316 499.944 107.136C480.645 104.956 466.775 87.4769 468.964 68.0946C471.153 48.7124 488.572 34.767 507.871 36.9467C527.171 39.1264 541.041 56.6058 538.852 75.988ZM495.265 65.0099C498.553 65.3813 501.52 63.0053 501.893 59.7031C502.266 56.4011 499.903 53.423 496.615 53.0516C493.327 52.6803 490.359 55.0563 489.986 58.3582C489.613 61.6605 491.977 64.6386 495.265 65.0099ZM513.901 67.1148C517.189 67.4862 520.157 65.1102 520.53 61.808C520.903 58.506 518.54 55.5279 515.252 55.1565C511.964 54.7852 508.996 57.1612 508.623 60.4632C508.25 63.7654 510.614 66.7435 513.901 67.1148ZM502.787 84.2887C494.781 83.3845 489.028 76.1338 489.936 68.0939L483.723 67.3922C482.426 78.8778 490.646 89.2362 502.082 90.5279C513.518 91.8196 523.841 83.5554 525.138 72.0698L518.926 71.3682C518.018 79.4081 510.792 85.1929 502.787 84.2887Z" fill="#F45CB7"/>
<path d="M499.495 111.111C521.006 113.54 540.391 97.9984 542.826 76.437C545.262 54.8757 529.831 35.4015 508.32 32.972C486.81 30.5425 467.424 46.0844 464.989 67.6457C462.554 89.2071 477.985 108.681 499.495 111.111ZM497.919 59.2541C497.792 60.3775 496.79 61.1568 495.714 61.0352C494.637 60.9136 493.834 59.9304 493.961 58.8072C494.088 57.6843 495.09 56.9047 496.166 57.0264C497.243 57.148 498.045 58.1312 497.919 59.2541ZM516.556 61.3591C516.429 62.4823 515.427 63.2617 514.35 63.1401C513.274 63.0185 512.471 62.0354 512.598 60.9121C512.725 59.7891 513.727 59.0097 514.803 59.1313C515.88 59.2529 516.682 60.2362 516.556 61.3591Z" stroke="white" stroke-width="8"/>
</g>
<defs>
<filter id="filter0_d_36_507" x="456.736" y="28.7214" width="94.3435" height="94.6399" filterUnits="userSpaceOnUse" color-interpolation-filters="sRGB">
<feFlood flood-opacity="0" result="BackgroundImageFix"/>
<feColorMatrix in="SourceAlpha" type="matrix" values="0 0 0 0 0 0 0 0 0 0 0 0 0 0 0 0 0 0 127 0" result="hardAlpha"/>
<feOffset dy="4"/>
<feGaussianBlur stdDeviation="2"/>
<feComposite in2="hardAlpha" operator="out"/>
<feColorMatrix type="matrix" values="0 0 0 0 0 0 0 0 0 0 0 0 0 0 0 0 0 0 0.25 0"/>
<feBlend mode="normal" in2="BackgroundImageFix" result="effect1_dropShadow_36_507"/>
<feBlend mode="normal" in="SourceGraphic" in2="effect1_dropShadow_36_507" result="shape"/>
</filter>
</defs>
</svg>
