<svg width="565" height="115" viewBox="0 0 565 115" fill="none" xmlns="http://www.w3.org/2000/svg">
<path d="M87.7207 81V26.4H101.721V39.7L100.221 37.5C101.021 33.3 102.954 30.2 106.021 28.2C109.087 26.2 112.754 25.2 117.021 25.2C121.554 25.2 125.521 26.3667 128.921 28.7C132.387 30.9667 134.554 34.0333 135.421 37.9L131.121 38.3C132.921 33.8333 135.487 30.5333 138.821 28.4C142.154 26.2667 146.054 25.2 150.521 25.2C154.454 25.2 157.921 26.0667 160.921 27.8C163.987 29.5333 166.387 31.9667 168.121 35.1C169.854 38.1667 170.721 41.7667 170.721 45.9V81H155.721V49.1C155.721 46.9667 155.321 45.1333 154.521 43.6C153.787 42.0667 152.721 40.8667 151.321 40C149.921 39.1333 148.221 38.7 146.221 38.7C144.287 38.7 142.587 39.1333 141.121 40C139.721 40.8667 138.621 42.0667 137.821 43.6C137.087 45.1333 136.721 46.9667 136.721 49.1V81H121.721V49.1C121.721 46.9667 121.321 45.1333 120.521 43.6C119.787 42.0667 118.721 40.8667 117.321 40C115.921 39.1333 114.221 38.7 112.221 38.7C110.287 38.7 108.587 39.1333 107.121 40C105.721 40.8667 104.621 42.0667 103.821 43.6C103.087 45.1333 102.721 46.9667 102.721 49.1V81H87.7207ZM187.115 103.2C185.515 103.2 183.949 103.067 182.415 102.8C180.949 102.533 179.649 102.1 178.515 101.5V89.2C179.449 89.4667 180.549 89.7 181.815 89.9C183.082 90.1 184.249 90.2 185.315 90.2C188.249 90.2 190.349 89.5 191.615 88.1C192.882 86.7 193.915 85.1 194.715 83.3L198.415 74.8L198.215 87.3L174.215 26.4H190.315L206.215 69.7H200.215L216.115 26.4H232.215L208.815 86.1C207.349 89.9 205.549 93.0667 203.415 95.6C201.282 98.1333 198.849 100.033 196.115 101.3C193.449 102.567 190.449 103.2 187.115 103.2ZM269.14 81L250.34 26.4H265.84L279.04 65.8L273.64 65.7L288.34 26.4H301.34L315.94 65.7L310.54 65.8L323.74 26.4H339.34L320.44 81H307.44L292.24 38.8H297.44L282.14 81H269.14ZM371.075 82.2C365.675 82.2 360.741 80.9667 356.275 78.5C351.875 76.0333 348.341 72.6667 345.675 68.4C343.075 64.0667 341.775 59.1667 341.775 53.7C341.775 48.1667 343.075 43.2667 345.675 39C348.341 34.7333 351.875 31.3667 356.275 28.9C360.741 26.4333 365.675 25.2 371.075 25.2C376.475 25.2 381.375 26.4333 385.775 28.9C390.175 31.3667 393.675 34.7333 396.275 39C398.941 43.2667 400.275 48.1667 400.275 53.7C400.275 59.1667 398.941 64.0667 396.275 68.4C393.675 72.6667 390.175 76.0333 385.775 78.5C381.375 80.9667 376.475 82.2 371.075 82.2ZM371.075 68.7C373.808 68.7 376.175 68.0667 378.175 66.8C380.241 65.5333 381.841 63.7667 382.975 61.5C384.175 59.2333 384.775 56.6333 384.775 53.7C384.775 50.7667 384.175 48.2 382.975 46C381.841 43.7333 380.241 41.9667 378.175 40.7C376.175 39.3667 373.808 38.7 371.075 38.7C368.341 38.7 365.941 39.3667 363.875 40.7C361.808 41.9667 360.175 43.7333 358.975 46C357.841 48.2 357.275 50.7667 357.275 53.7C357.275 56.6333 357.841 59.2333 358.975 61.5C360.175 63.7667 361.808 65.5333 363.875 66.8C365.941 68.0667 368.341 68.7 371.075 68.7ZM408.111 81V26.4H422.111V39.5L421.111 37.6C422.311 33 424.278 29.9 427.011 28.3C429.811 26.6333 433.111 25.8 436.911 25.8H440.111V38.8H435.411C431.745 38.8 428.778 39.9333 426.511 42.2C424.245 44.4 423.111 47.5333 423.111 51.6V81H408.111ZM445.686 81V5.3H460.686V53.8L455.086 52L479.186 26.4H497.686L477.886 48.4L497.586 81H480.586L464.086 53.3L472.786 51.1L456.086 69.3L460.686 60.6V81H445.686Z" fill="#1B1B1B"/>
<g filter="url(#filter0_d_36_505)">
<path d="M5.2385 78.2668C6.13415 83.3345 9.32075 87.2773 13.5361 89.553L35.4061 103.502C39.4508 106.082 44.8209 105.071 47.6255 101.158L63.5676 78.9143C64.7043 77.3283 65.2387 75.6091 65.2853 73.9304C65.758 71.9282 65.8416 69.8011 65.4568 67.6239C63.8119 58.317 54.44 52.804 45.1596 54.4442C40.2758 55.3074 36.0472 58.0402 33.3765 61.7922C29.5814 59.1829 24.6723 58.0651 19.7885 58.9283C10.5081 60.5685 3.5936 68.9599 5.2385 78.2668Z" fill="#F45045" stroke="white" stroke-width="8"/>
</g>
<path d="M55.9711 40.4127C55.9711 27.1467 53.1945 23.6931 42.5289 23.6931C42.2204 23.6931 42 23.3642 42 23.0353C42 22.6515 42.2644 22.3774 42.5289 22.3774C53.1945 22.3774 55.9711 18.9239 55.9711 5.65782C55.9711 5.27409 56.2356 5 56.5 5C56.8085 5 57.0289 5.32891 57.0289 5.65782C57.0289 18.9239 59.8055 22.3774 70.4711 22.3774C70.7796 22.3774 71 22.7064 71 23.0353C71 23.419 70.7356 23.6931 70.4711 23.6931C59.8055 23.6931 57.0289 27.1467 57.0289 40.4127C57.0289 40.7964 56.7644 41.0705 56.5 41.0705C56.1915 41.0705 55.9711 40.7964 55.9711 40.4127ZM56.5 13.5517C55.5745 19.0335 53.3267 21.8293 48.9195 22.9805C53.3267 24.1316 55.5745 26.9274 56.5 32.4092C57.4255 26.9274 59.6733 24.1316 64.0805 22.9805C59.6733 21.8293 57.4255 19.0335 56.5 13.5517Z" fill="#141414"/>
<path d="M539.088 98.6642C539.088 75.8631 534.301 69.9273 515.912 69.9273C515.38 69.9273 515 69.362 515 68.7967C515 68.1372 515.456 67.6661 515.912 67.6661C534.301 67.6661 539.088 61.7303 539.088 38.9292C539.088 38.2697 539.544 37.7986 540 37.7986C540.532 37.7986 540.912 38.3639 540.912 38.9292C540.912 61.7303 545.699 67.6661 564.088 67.6661C564.62 67.6661 565 68.2314 565 68.7967C565 69.4562 564.544 69.9273 564.088 69.9273C545.699 69.9273 540.912 75.8631 540.912 98.6642C540.912 99.3237 540.456 99.7948 540 99.7948C539.468 99.7948 539.088 99.3237 539.088 98.6642ZM540 52.4968C538.404 61.9187 534.529 66.7239 526.93 68.7025C534.529 70.6811 538.404 75.4863 540 84.9082C541.596 75.4863 545.471 70.6811 553.07 68.7025C545.471 66.7239 541.596 61.9187 540 52.4968Z" fill="#141414"/>
<defs>
<filter id="filter0_d_36_505" x="0.990479" y="50.1613" width="74.7144" height="64.7644" filterUnits="userSpaceOnUse" color-interpolation-filters="sRGB">
<feFlood flood-opacity="0" result="BackgroundImageFix"/>
<feColorMatrix in="SourceAlpha" type="matrix" values="0 0 0 0 0 0 0 0 0 0 0 0 0 0 0 0 0 0 127 0" result="hardAlpha"/>
<feOffset dx="3" dy="3"/>
<feGaussianBlur stdDeviation="1.5"/>
<feComposite in2="hardAlpha" operator="out"/>
<feColorMatrix type="matrix" values="0 0 0 0 0 0 0 0 0 0 0 0 0 0 0 0 0 0 0.3 0"/>
<feBlend mode="normal" in2="BackgroundImageFix" result="effect1_dropShadow_36_505"/>
<feBlend mode="normal" in="SourceGraphic" in2="effect1_dropShadow_36_505" result="shape"/>
</filter>
</defs>
</svg>
