<svg width="382" height="249" viewBox="0 0 382 249" fill="none" xmlns="http://www.w3.org/2000/svg">
<g filter="url(#filter0_d_23_359)">
<path d="M160.514 131.038C163.583 128.498 165.732 124.74 166.28 120.733C166.843 116.618 165.705 112.158 162.086 108.757C159.213 106.057 155.687 104.077 152.869 102.998C146.847 100.694 140.167 99.3603 133.634 100.537C126.805 101.766 120.827 105.625 116.486 112.34C116.23 112.738 115.981 113.138 115.742 113.543C107.1 109.201 99.8365 103.68 93.2683 98.1596C79.9903 87.0001 77.6658 72.8004 80.7431 62.4359C81.8803 58.606 79.7078 54.5488 75.8152 53.4472L74.6841 57.4441L75.8152 53.4472C71.9639 52.3574 67.9859 54.6052 66.8603 58.3964C62.1503 74.2596 66.2264 94.4117 83.9074 109.272C91.2774 115.466 100.147 122.244 111.189 127.476C111.165 127.734 111.144 127.992 111.126 128.251C110.02 144.121 120.17 157.55 130.423 166.009C133.712 168.723 137.705 171.17 143.847 174.236C145.996 175.309 148.576 176.538 151.401 177.8C150.535 186.431 154.084 195.079 161.56 203.781C170.145 213.773 184.612 224.743 206.339 237.412C209.818 239.441 214.226 238.21 216.24 234.815C218.265 231.4 217.196 226.93 213.695 224.889C192.403 212.473 179.586 202.465 172.572 194.302C168.9 190.027 167.041 186.539 166.252 183.657C168.227 184.316 170.199 184.914 172.119 185.418C176.787 186.644 182.195 187.612 186.745 186.77C195.756 185.103 200.667 178.647 201.432 171.898C202.022 166.693 199.554 162.764 196.918 160.276C194.409 157.908 191.313 156.37 188.919 155.381C187.965 154.987 187.032 154.62 186.114 154.295C174.938 150.337 163.284 155.819 156.795 164.307C154.399 163.228 152.213 162.183 150.383 161.27C144.7 158.432 141.785 156.547 139.684 154.814C132.093 148.551 126.645 140.73 125.682 132.925C131.833 134.661 138.512 135.849 145.794 136.282C151.038 136.595 156.327 134.503 160.514 131.038ZM146.748 121.825C140.455 121.45 134.736 120.421 129.5 118.928C131.513 116.351 133.748 115.216 136.112 114.79C139.114 114.249 142.99 114.759 147.616 116.529C148.875 117.011 150.594 117.977 151.892 119.124C151.853 119.276 151.726 119.57 151.321 119.906C149.409 121.489 147.642 121.878 146.748 121.825ZM151.909 118.987C151.91 118.987 151.91 118.989 151.91 118.994C151.909 118.99 151.909 118.987 151.909 118.987ZM175.883 171.409C174.416 171.023 172.877 170.561 171.295 170.041C174.457 167.736 178.298 166.923 181.2 167.951C181.809 168.166 182.499 168.435 183.317 168.773L184.885 164.977L183.317 168.773C185.081 169.501 186.296 170.233 186.934 170.832C186.852 171.066 186.726 171.28 186.551 171.47C186.281 171.763 185.653 172.26 184.198 172.529C183.018 172.748 180.28 172.564 175.883 171.409Z" fill="#66C0F2" stroke="white" stroke-width="8.30774" stroke-linecap="round"/>
</g>
<g filter="url(#filter1_d_23_359)">
<path d="M48.6207 132.132C48.5317 130.527 50.8132 130.127 51.2755 131.667L55.1529 144.582C60.1596 161.259 75.9417 172.333 93.3272 171.368L106.791 170.621C108.396 170.532 108.796 172.813 107.257 173.275L94.3414 177.153C77.6645 182.16 66.5908 197.942 67.5558 215.327L68.3032 228.791C68.3922 230.396 66.1107 230.796 65.6483 229.257L61.771 216.341C56.7642 199.664 40.9821 188.591 23.5965 189.556L10.1325 190.303C8.52752 190.392 8.12754 188.111 9.66704 187.648L22.5823 183.771C39.2594 178.764 50.3331 162.982 49.368 145.596L48.6207 132.132Z" fill="#FFD45E"/>
<path d="M44.6268 132.354L44.6268 132.354L45.3742 145.818C46.2368 161.358 36.3387 175.465 21.4321 179.94L8.51689 183.817L8.51649 183.817C2.43977 185.642 4.01863 194.648 10.3538 194.297L10.3542 194.297L23.8182 193.55C39.3581 192.687 53.4647 202.585 57.9399 217.491L61.8173 230.407L61.8174 230.407C63.6424 236.484 72.6482 234.905 72.2971 228.57L72.2971 228.569L71.5497 215.105C70.6871 199.566 80.5852 185.459 95.4916 180.984L108.407 177.106L108.407 177.106C114.484 175.281 112.905 166.276 106.57 166.627L106.57 166.627L93.1055 167.374C77.5658 168.237 63.4592 158.339 58.984 143.432L55.1066 130.517L55.1065 130.516C53.2814 124.44 44.2758 126.018 44.6268 132.354Z" stroke="white" stroke-width="8"/>
</g>
<g filter="url(#filter2_d_23_359)">
<path d="M114.696 45.1206C115.286 55.833 120.989 64.9648 129.396 70.8346L178.8 111.422C185.536 116.955 195.425 116.289 201.316 109.861L246.785 60.2461C249.315 57.4857 250.661 54.3056 251.024 51.1094C252.67 46.8916 253.46 42.2974 253.196 37.5008C252.123 17.9966 234.096 3.73199 213.668 4.85591C200.564 5.57685 189.137 12.4828 182.911 22.4902C175.624 13.2263 163.508 7.61551 150.404 8.33644C129.976 9.46037 113.623 25.6164 114.696 45.1206Z" fill="#F45045" stroke="white" stroke-width="8"/>
</g>
<g filter="url(#filter3_d_23_359)">
<path fill-rule="evenodd" clip-rule="evenodd" d="M364.197 165.092C354.504 206.039 313.595 231.409 272.823 221.758C232.052 212.107 206.858 171.089 216.551 130.141C226.244 89.194 267.153 63.8236 307.925 73.4749C348.696 83.1263 373.89 124.144 364.197 165.092ZM273.678 130.325C280.624 131.969 287.594 127.647 289.245 120.67C290.897 113.695 286.604 106.706 279.658 105.062C272.712 103.418 265.742 107.74 264.091 114.716C262.439 121.692 266.732 128.681 273.678 130.325ZM313.05 139.645C319.997 141.29 326.967 136.967 328.618 129.991C330.269 123.015 325.977 116.026 319.03 114.382C312.085 112.738 305.115 117.06 303.463 124.036C301.812 131.013 306.104 138.001 313.05 139.645ZM284.811 173.558C267.898 169.555 257.447 152.54 261.468 135.554L248.344 132.448C242.6 156.712 257.53 181.02 281.69 186.739C305.852 192.459 330.094 177.424 335.838 153.159L322.714 150.052C318.693 167.038 301.724 177.562 284.811 173.558Z" fill="#F45CB7"/>
<path d="M271.902 225.651C314.839 235.815 357.892 209.095 368.09 166.013C378.288 122.932 351.783 79.7464 308.846 69.5824C265.909 59.4185 222.856 86.1386 212.658 129.22C202.46 172.301 228.965 215.487 271.902 225.651ZM285.353 119.749C284.207 124.592 279.38 127.564 274.599 126.433C269.818 125.301 266.837 120.48 267.983 115.637C269.129 110.796 273.956 107.823 278.737 108.954C283.517 110.086 286.499 114.907 285.353 119.749ZM324.726 129.069C323.579 133.912 318.753 136.885 313.972 135.753C309.191 134.621 306.209 129.8 307.356 124.958C308.502 120.116 313.329 117.143 318.109 118.274C322.89 119.406 325.872 124.227 324.726 129.069ZM330.838 156.086C324.084 175.926 303.302 187.745 282.612 182.847C261.922 177.949 248.643 158.068 251.5 137.306L256.87 138.576C254.703 156.323 266.124 173.245 283.889 177.451C301.655 181.656 319.45 171.65 325.469 154.815L330.838 156.086Z" stroke="white" stroke-width="8"/>
</g>
<defs>
<filter id="filter0_d_23_359" x="57.7813" y="49.0162" width="166.746" height="199.766" filterUnits="userSpaceOnUse" color-interpolation-filters="sRGB">
<feFlood flood-opacity="0" result="BackgroundImageFix"/>
<feColorMatrix in="SourceAlpha" type="matrix" values="0 0 0 0 0 0 0 0 0 0 0 0 0 0 0 0 0 0 127 0" result="hardAlpha"/>
<feOffset dy="3.1154"/>
<feGaussianBlur stdDeviation="1.5577"/>
<feComposite in2="hardAlpha" operator="out"/>
<feColorMatrix type="matrix" values="0 0 0 0 0 0 0 0 0 0 0 0 0 0 0 0 0 0 0.3 0"/>
<feBlend mode="normal" in2="BackgroundImageFix" result="effect1_dropShadow_23_359"/>
<feBlend mode="normal" in="SourceGraphic" in2="effect1_dropShadow_23_359" result="shape"/>
</filter>
<filter id="filter1_d_23_359" x="0.688416" y="122.688" width="121.547" height="121.547" filterUnits="userSpaceOnUse" color-interpolation-filters="sRGB">
<feFlood flood-opacity="0" result="BackgroundImageFix"/>
<feColorMatrix in="SourceAlpha" type="matrix" values="0 0 0 0 0 0 0 0 0 0 0 0 0 0 0 0 0 0 127 0" result="hardAlpha"/>
<feOffset dx="3" dy="3"/>
<feGaussianBlur stdDeviation="1.5"/>
<feComposite in2="hardAlpha" operator="out"/>
<feColorMatrix type="matrix" values="0 0 0 0 0 0 0 0 0 0 0 0 0 0 0 0 0 0 0.3 0"/>
<feBlend mode="normal" in2="BackgroundImageFix" result="effect1_dropShadow_23_359"/>
<feBlend mode="normal" in="SourceGraphic" in2="effect1_dropShadow_23_359" result="shape"/>
</filter>
<filter id="filter2_d_23_359" x="110.646" y="0.794434" width="152.601" height="124.371" filterUnits="userSpaceOnUse" color-interpolation-filters="sRGB">
<feFlood flood-opacity="0" result="BackgroundImageFix"/>
<feColorMatrix in="SourceAlpha" type="matrix" values="0 0 0 0 0 0 0 0 0 0 0 0 0 0 0 0 0 0 127 0" result="hardAlpha"/>
<feOffset dx="3" dy="3"/>
<feGaussianBlur stdDeviation="1.5"/>
<feComposite in2="hardAlpha" operator="out"/>
<feColorMatrix type="matrix" values="0 0 0 0 0 0 0 0 0 0 0 0 0 0 0 0 0 0 0.3 0"/>
<feBlend mode="normal" in2="BackgroundImageFix" result="effect1_dropShadow_23_359"/>
<feBlend mode="normal" in="SourceGraphic" in2="effect1_dropShadow_23_359" result="shape"/>
</filter>
<filter id="filter3_d_23_359" x="202.475" y="63.4236" width="175.799" height="176.386" filterUnits="userSpaceOnUse" color-interpolation-filters="sRGB">
<feFlood flood-opacity="0" result="BackgroundImageFix"/>
<feColorMatrix in="SourceAlpha" type="matrix" values="0 0 0 0 0 0 0 0 0 0 0 0 0 0 0 0 0 0 127 0" result="hardAlpha"/>
<feOffset dy="4"/>
<feGaussianBlur stdDeviation="2"/>
<feComposite in2="hardAlpha" operator="out"/>
<feColorMatrix type="matrix" values="0 0 0 0 0 0 0 0 0 0 0 0 0 0 0 0 0 0 0.25 0"/>
<feBlend mode="normal" in2="BackgroundImageFix" result="effect1_dropShadow_23_359"/>
<feBlend mode="normal" in="SourceGraphic" in2="effect1_dropShadow_23_359" result="shape"/>
</filter>
</defs>
</svg>
