<svg width="462" height="117" viewBox="0 0 462 117" fill="none" xmlns="http://www.w3.org/2000/svg">
<path d="M40.2941 96.6C33.6941 96.6 28.5608 94.8333 24.8941 91.3C21.2941 87.7 19.4941 82.7 19.4941 76.3V54.4H10.2941V41.4H10.7941C13.5941 41.4 15.7275 40.7 17.1941 39.3C18.7275 37.9 19.4941 35.8 19.4941 33V29H34.4941V41.4H47.2941V54.4H34.4941V75.3C34.4941 77.1667 34.8275 78.7333 35.4941 80C36.1608 81.2 37.1941 82.1 38.5941 82.7C39.9941 83.3 41.7275 83.6 43.7941 83.6C44.2608 83.6 44.7941 83.5667 45.3941 83.5C45.9941 83.4333 46.6275 83.3667 47.2941 83.3V96C46.2941 96.1333 45.1608 96.2667 43.8941 96.4C42.6275 96.5333 41.4275 96.6 40.2941 96.6ZM82.184 97.2C76.784 97.2 71.8507 95.9667 67.384 93.5C62.984 91.0333 59.4507 87.6667 56.784 83.4C54.184 79.0667 52.884 74.1667 52.884 68.7C52.884 63.1667 54.184 58.2667 56.784 54C59.4507 49.7333 62.984 46.3667 67.384 43.9C71.8507 41.4333 76.784 40.2 82.184 40.2C87.584 40.2 92.484 41.4333 96.884 43.9C101.284 46.3667 104.784 49.7333 107.384 54C110.051 58.2667 111.384 63.1667 111.384 68.7C111.384 74.1667 110.051 79.0667 107.384 83.4C104.784 87.6667 101.284 91.0333 96.884 93.5C92.484 95.9667 87.584 97.2 82.184 97.2ZM82.184 83.7C84.9173 83.7 87.284 83.0667 89.284 81.8C91.3507 80.5333 92.9507 78.7667 94.084 76.5C95.284 74.2333 95.884 71.6333 95.884 68.7C95.884 65.7667 95.284 63.2 94.084 61C92.9507 58.7333 91.3507 56.9667 89.284 55.7C87.284 54.3667 84.9173 53.7 82.184 53.7C79.4507 53.7 77.0507 54.3667 74.984 55.7C72.9173 56.9667 71.284 58.7333 70.084 61C68.9507 63.2 68.384 65.7667 68.384 68.7C68.384 71.6333 68.9507 74.2333 70.084 76.5C71.284 78.7667 72.9173 80.5333 74.984 81.8C77.0507 83.0667 79.4507 83.7 82.184 83.7ZM146.321 97.2C140.921 97.2 135.987 95.9667 131.521 93.5C127.121 91.0333 123.587 87.6667 120.921 83.4C118.321 79.0667 117.021 74.1667 117.021 68.7C117.021 63.1667 118.321 58.2667 120.921 54C123.587 49.7333 127.121 46.3667 131.521 43.9C135.987 41.4333 140.921 40.2 146.321 40.2C151.721 40.2 156.621 41.4333 161.021 43.9C165.421 46.3667 168.921 49.7333 171.521 54C174.187 58.2667 175.521 63.1667 175.521 68.7C175.521 74.1667 174.187 79.0667 171.521 83.4C168.921 87.6667 165.421 91.0333 161.021 93.5C156.621 95.9667 151.721 97.2 146.321 97.2ZM146.321 83.7C149.054 83.7 151.421 83.0667 153.421 81.8C155.487 80.5333 157.087 78.7667 158.221 76.5C159.421 74.2333 160.021 71.6333 160.021 68.7C160.021 65.7667 159.421 63.2 158.221 61C157.087 58.7333 155.487 56.9667 153.421 55.7C151.421 54.3667 149.054 53.7 146.321 53.7C143.587 53.7 141.187 54.3667 139.121 55.7C137.054 56.9667 135.421 58.7333 134.221 61C133.087 63.2 132.521 65.7667 132.521 68.7C132.521 71.6333 133.087 74.2333 134.221 76.5C135.421 78.7667 137.054 80.5333 139.121 81.8C141.187 83.0667 143.587 83.7 146.321 83.7ZM183.357 96V20.3H198.357V96H183.357ZM238.934 97.2C235.201 97.2 231.734 96.5333 228.534 95.2C225.401 93.8 222.867 91.7667 220.934 89.1L222.334 86V96H208.334V20.3H223.334V51.8L221.034 48.8C222.834 46.0667 225.267 43.9667 228.334 42.5C231.467 40.9667 235.034 40.2 239.034 40.2C244.234 40.2 248.934 41.4667 253.134 44C257.334 46.5333 260.667 49.9667 263.134 54.3C265.601 58.5667 266.834 63.3667 266.834 68.7C266.834 73.9667 265.601 78.7667 263.134 83.1C260.734 87.4333 257.434 90.8667 253.234 93.4C249.034 95.9333 244.267 97.2 238.934 97.2ZM237.134 83.7C239.934 83.7 242.401 83.0667 244.534 81.8C246.667 80.5333 248.334 78.7667 249.534 76.5C250.734 74.2333 251.334 71.6333 251.334 68.7C251.334 65.7667 250.734 63.2 249.534 61C248.334 58.7333 246.667 56.9667 244.534 55.7C242.401 54.3667 239.934 53.7 237.134 53.7C234.467 53.7 232.067 54.3333 229.934 55.6C227.867 56.8667 226.234 58.6333 225.034 60.9C223.901 63.1667 223.334 65.7667 223.334 68.7C223.334 71.6333 223.901 74.2333 225.034 76.5C226.234 78.7667 227.867 80.5333 229.934 81.8C232.067 83.0667 234.467 83.7 237.134 83.7ZM301.719 97.2C296.319 97.2 291.386 95.9667 286.919 93.5C282.519 91.0333 278.986 87.6667 276.319 83.4C273.719 79.0667 272.419 74.1667 272.419 68.7C272.419 63.1667 273.719 58.2667 276.319 54C278.986 49.7333 282.519 46.3667 286.919 43.9C291.386 41.4333 296.319 40.2 301.719 40.2C307.119 40.2 312.019 41.4333 316.419 43.9C320.819 46.3667 324.319 49.7333 326.919 54C329.586 58.2667 330.919 63.1667 330.919 68.7C330.919 74.1667 329.586 79.0667 326.919 83.4C324.319 87.6667 320.819 91.0333 316.419 93.5C312.019 95.9667 307.119 97.2 301.719 97.2ZM301.719 83.7C304.452 83.7 306.819 83.0667 308.819 81.8C310.886 80.5333 312.486 78.7667 313.619 76.5C314.819 74.2333 315.419 71.6333 315.419 68.7C315.419 65.7667 314.819 63.2 313.619 61C312.486 58.7333 310.886 56.9667 308.819 55.7C306.819 54.3667 304.452 53.7 301.719 53.7C298.986 53.7 296.586 54.3667 294.519 55.7C292.452 56.9667 290.819 58.7333 289.619 61C288.486 63.2 287.919 65.7667 287.919 68.7C287.919 71.6333 288.486 74.2333 289.619 76.5C290.819 78.7667 292.452 80.5333 294.519 81.8C296.586 83.0667 298.986 83.7 301.719 83.7ZM332.503 96L351.603 68.6L332.403 41.4H349.803L364.203 62.6H356.603L371.003 41.4H388.403L369.203 68.6L388.203 96H370.903L356.803 74.8H364.003L349.903 96H332.503Z" fill="#1B1B1B"/>
<path fill-rule="evenodd" clip-rule="evenodd" d="M8.95254 90.3736C6.50294 91.2637 3.90618 91.8334 1.38555 92.3679C0.842485 92.4812 0.300966 92.1653 0.216685 91.6601C0.0931704 91.1579 0.444139 90.6576 0.948001 90.5478C3.39126 90.0318 5.91083 89.4881 8.24504 88.6332C8.74228 88.4486 9.31675 88.687 9.51731 89.1669C9.71784 89.6465 9.44974 90.1886 8.95254 90.3736Z" fill="black"/>
<path fill-rule="evenodd" clip-rule="evenodd" d="M17.3961 99.1681C13.7049 103.435 9.45953 107.243 5.85604 111.607C5.53646 112.013 4.91104 112.089 4.48803 111.774C4.06499 111.458 3.97374 110.873 4.33252 110.463C7.935 106.087 12.1794 102.268 15.8696 97.9899C16.2291 97.5892 16.8557 97.5284 17.2796 97.8536C17.6643 98.182 17.7557 98.7675 17.3961 99.1681Z" fill="black"/>
<path fill-rule="evenodd" clip-rule="evenodd" d="M26.2945 113.531C26.2139 111.284 26.133 109.036 26.0523 106.789C26.0069 106.276 26.4424 105.839 26.9935 105.815C27.5445 105.792 27.9749 106.193 28.0204 106.706C28.1013 108.957 28.1825 111.208 28.2635 113.459C28.2697 113.975 27.834 114.409 27.2828 114.43C26.7707 114.447 26.3007 114.047 26.2945 113.531Z" fill="black"/>
<g filter="url(#filter0_d_36_506)">
<path d="M418.226 8.72304C418.335 7.75899 419.665 7.75899 419.774 8.72304L420.686 16.8105C421.865 27.2537 429.693 35.4873 439.623 36.7264L447.312 37.6861C448.229 37.8006 448.229 39.1995 447.312 39.3139L439.623 40.2736C429.693 41.5127 421.865 49.7463 420.686 60.1894L419.774 68.2769C419.665 69.241 418.335 69.241 418.226 68.2769L417.314 60.1894C416.135 49.7463 408.307 41.5127 398.377 40.2736L390.687 39.3139C389.771 39.1995 389.771 37.8006 390.687 37.6861L398.377 36.7264C408.307 35.4873 416.135 27.2537 417.314 16.8105L418.226 8.72304Z" fill="#FFD45E"/>
<path d="M414.251 8.27422L414.251 8.27461L413.339 16.3621C412.353 25.1006 405.849 31.763 397.882 32.7572L390.192 33.7168L390.192 33.7169C387.271 34.0817 386 36.605 386 38.5C386 40.395 387.271 42.9183 390.192 43.2831L390.192 43.2832L397.882 44.2428C405.849 45.237 412.353 51.8994 413.339 60.6378L414.251 68.7253L414.251 68.7256C414.895 74.4248 423.105 74.4248 423.749 68.7256L423.749 68.7253L424.661 60.6378C425.647 51.8994 432.151 45.237 440.118 44.2428L447.808 43.2832L447.808 43.2831C450.728 42.9184 452 40.3954 452 38.5C452 36.6046 450.728 34.0816 447.808 33.7169L447.808 33.7168L440.118 32.7572C432.151 31.763 425.647 25.1006 424.661 16.3621L423.749 8.27461L423.749 8.27422C423.105 2.57526 414.895 2.57526 414.251 8.27422Z" stroke="white" stroke-width="8"/>
</g>
<defs>
<filter id="filter0_d_36_506" x="382" y="0" width="80" height="83" filterUnits="userSpaceOnUse" color-interpolation-filters="sRGB">
<feFlood flood-opacity="0" result="BackgroundImageFix"/>
<feColorMatrix in="SourceAlpha" type="matrix" values="0 0 0 0 0 0 0 0 0 0 0 0 0 0 0 0 0 0 127 0" result="hardAlpha"/>
<feOffset dx="3" dy="3"/>
<feGaussianBlur stdDeviation="1.5"/>
<feComposite in2="hardAlpha" operator="out"/>
<feColorMatrix type="matrix" values="0 0 0 0 0 0 0 0 0 0 0 0 0 0 0 0 0 0 0.3 0"/>
<feBlend mode="normal" in2="BackgroundImageFix" result="effect1_dropShadow_36_506"/>
<feBlend mode="normal" in="SourceGraphic" in2="effect1_dropShadow_36_506" result="shape"/>
</filter>
</defs>
</svg>
